STARTFONT 2.1
FONT -FontForge-Goethe-Bold-R-Normal--20-140-100-100-P-94-ISO10646-1
SIZE 14 100 100
FONTBOUNDINGBOX 37 21 -10 -6
COMMENT "Generated by fontforge, http://fontforge.sourceforge.net"
COMMENT "Created by Rebecca Bettencourt with FontForge 2.0 (http://fontforge.sf.net)"
STARTPROPERTIES 40
FOUNDRY "FontForge"
FAMILY_NAME "Goethe"
WEIGHT_NAME "Bold"
SLANT "R"
SETWIDTH_NAME "Normal"
ADD_STYLE_NAME ""
PIXEL_SIZE 20
POINT_SIZE 140
RESOLUTION_X 100
RESOLUTION_Y 100
SPACING "P"
AVERAGE_WIDTH 94
CHARSET_REGISTRY "ISO10646"
CHARSET_ENCODING "1"
FONTNAME_REGISTRY ""
CHARSET_COLLECTIONS "ISO8859-2 ISO8859-5 ISO8859-7 ISO8859-9 ISO8859-4 ISO10646-1"
FONT_NAME "GoetheBold"
FACE_NAME "Goethe Bold"
COPYRIGHT "Created by Rebecca Bettencourt with FontForge 2.0 (http://fontforge.sf.net)"
FONT_VERSION "1.0"
FONT_ASCENT 14
FONT_DESCENT 6
UNDERLINE_POSITION -2
UNDERLINE_THICKNESS 1
X_HEIGHT 7
CAP_HEIGHT 10
RAW_ASCENT 700
RAW_DESCENT 300
NORM_SPACE 6
RELATIVE_WEIGHT 70
RELATIVE_SETWIDTH 50
SUPERSCRIPT_X 0
SUPERSCRIPT_Y 10
SUPERSCRIPT_SIZE 20
SUBSCRIPT_X 0
SUBSCRIPT_Y 10
SUBSCRIPT_SIZE 20
FIGURE_WIDTH 9
AVG_LOWERCASE_WIDTH 91
AVG_UPPERCASE_WIDTH 105
ENDPROPERTIES
CHARS 813
STARTCHAR space
ENCODING 32
SWIDTH 300 0
DWIDTH 6 0
BBX 1 1 0 0
BITMAP
00
ENDCHAR
STARTCHAR exclam
ENCODING 33
SWIDTH 150 0
DWIDTH 3 0
BBX 2 11 0 0
BITMAP
C0
C0
C0
C0
C0
C0
C0
C0
00
C0
C0
ENDCHAR
STARTCHAR quotedbl
ENCODING 34
SWIDTH 250 0
DWIDTH 5 0
BBX 4 3 0 9
BITMAP
F0
F0
F0
ENDCHAR
STARTCHAR numbersign
ENCODING 35
SWIDTH 500 0
DWIDTH 10 0
BBX 9 8 0 3
BITMAP
1B00
1B00
7F80
3600
3600
FF00
6C00
6C00
ENDCHAR
STARTCHAR dollar
ENCODING 36
SWIDTH 450 0
DWIDTH 9 0
BBX 8 15 0 -2
BITMAP
18
18
3F
7F
DB
D8
78
3C
1E
1B
DB
FE
FC
18
18
ENDCHAR
STARTCHAR percent
ENCODING 37
SWIDTH 550 0
DWIDTH 11 0
BBX 10 11 0 0
BITMAP
7F00
DB00
DE00
DE00
7C00
0C00
0F80
1EC0
1EC0
36C0
3380
ENDCHAR
STARTCHAR ampersand
ENCODING 38
SWIDTH 550 0
DWIDTH 11 0
BBX 10 11 0 0
BITMAP
3000
7800
7800
7800
3000
7BC0
CD80
CF00
C600
6F00
3980
ENDCHAR
STARTCHAR quotesingle
ENCODING 39
SWIDTH 150 0
DWIDTH 3 0
BBX 2 3 0 9
BITMAP
C0
C0
C0
ENDCHAR
STARTCHAR parenleft
ENCODING 40
SWIDTH 250 0
DWIDTH 5 0
BBX 4 15 0 -3
BITMAP
30
60
60
60
C0
C0
C0
C0
C0
C0
C0
60
60
60
30
ENDCHAR
STARTCHAR parenright
ENCODING 41
SWIDTH 250 0
DWIDTH 5 0
BBX 4 15 0 -3
BITMAP
C0
60
60
60
30
30
30
30
30
30
30
60
60
60
C0
ENDCHAR
STARTCHAR asterisk
ENCODING 42
SWIDTH 350 0
DWIDTH 7 0
BBX 6 5 0 7
BITMAP
30
FC
78
FC
30
ENDCHAR
STARTCHAR plus
ENCODING 43
SWIDTH 450 0
DWIDTH 9 0
BBX 8 7 0 1
BITMAP
18
18
18
FF
18
18
18
ENDCHAR
STARTCHAR comma
ENCODING 44
SWIDTH 200 0
DWIDTH 4 0
BBX 3 3 0 -1
BITMAP
60
60
C0
ENDCHAR
STARTCHAR hyphen
ENCODING 45
SWIDTH 400 0
DWIDTH 8 0
BBX 7 1 0 4
BITMAP
FE
ENDCHAR
STARTCHAR period
ENCODING 46
SWIDTH 150 0
DWIDTH 3 0
BBX 2 2 0 0
BITMAP
C0
C0
ENDCHAR
STARTCHAR slash
ENCODING 47
SWIDTH 350 0
DWIDTH 7 0
BBX 6 15 0 -3
BITMAP
0C
0C
0C
18
18
18
30
30
30
60
60
60
C0
C0
C0
ENDCHAR
STARTCHAR zero
ENCODING 48
SWIDTH 450 0
DWIDTH 9 0
BBX 8 11 0 0
BITMAP
3C
66
66
C3
C3
C3
C3
C3
66
66
3C
ENDCHAR
STARTCHAR one
ENCODING 49
SWIDTH 450 0
DWIDTH 9 0
BBX 4 11 2 0
BITMAP
60
E0
60
60
60
60
60
60
60
60
F0
ENDCHAR
STARTCHAR two
ENCODING 50
SWIDTH 450 0
DWIDTH 9 0
BBX 8 11 0 0
BITMAP
7C
C6
03
03
06
0C
18
30
60
C3
FF
ENDCHAR
STARTCHAR three
ENCODING 51
SWIDTH 450 0
DWIDTH 9 0
BBX 8 11 0 0
BITMAP
7C
C6
03
03
06
3C
06
03
03
C6
7C
ENDCHAR
STARTCHAR four
ENCODING 52
SWIDTH 450 0
DWIDTH 9 0
BBX 8 11 0 0
BITMAP
3C
3C
3C
6C
6C
CC
FF
0C
0C
0C
1E
ENDCHAR
STARTCHAR five
ENCODING 53
SWIDTH 450 0
DWIDTH 9 0
BBX 8 11 0 0
BITMAP
7F
60
C0
C0
FC
06
03
03
03
C6
7C
ENDCHAR
STARTCHAR six
ENCODING 54
SWIDTH 450 0
DWIDTH 9 0
BBX 8 11 0 0
BITMAP
1E
30
60
C0
FC
E6
C3
C3
C3
66
3C
ENDCHAR
STARTCHAR seven
ENCODING 55
SWIDTH 450 0
DWIDTH 9 0
BBX 8 11 0 0
BITMAP
FF
C3
06
06
0C
0C
0C
18
18
18
18
ENDCHAR
STARTCHAR eight
ENCODING 56
SWIDTH 450 0
DWIDTH 9 0
BBX 8 11 0 0
BITMAP
3C
66
C3
C3
66
3C
66
C3
C3
66
3C
ENDCHAR
STARTCHAR nine
ENCODING 57
SWIDTH 450 0
DWIDTH 9 0
BBX 8 11 0 0
BITMAP
3C
66
C3
C3
C3
67
3F
03
06
0C
38
ENDCHAR
STARTCHAR colon
ENCODING 58
SWIDTH 150 0
DWIDTH 3 0
BBX 2 7 0 0
BITMAP
C0
C0
00
00
00
C0
C0
ENDCHAR
STARTCHAR semicolon
ENCODING 59
SWIDTH 200 0
DWIDTH 4 0
BBX 3 8 0 -1
BITMAP
60
60
00
00
00
60
60
C0
ENDCHAR
STARTCHAR less
ENCODING 60
SWIDTH 300 0
DWIDTH 6 0
BBX 5 7 0 1
BITMAP
18
30
60
C0
60
30
18
ENDCHAR
STARTCHAR equal
ENCODING 61
SWIDTH 400 0
DWIDTH 8 0
BBX 7 3 0 3
BITMAP
FE
00
FE
ENDCHAR
STARTCHAR greater
ENCODING 62
SWIDTH 300 0
DWIDTH 6 0
BBX 5 7 0 1
BITMAP
C0
60
30
18
30
60
C0
ENDCHAR
STARTCHAR question
ENCODING 63
SWIDTH 450 0
DWIDTH 9 0
BBX 8 11 0 0
BITMAP
3C
66
C3
03
06
0C
18
18
00
18
18
ENDCHAR
STARTCHAR at
ENCODING 64
SWIDTH 600 0
DWIDTH 12 0
BBX 11 10 0 0
BITMAP
1F00
71C0
60C0
CF60
DB60
DB60
CFC0
6000
7000
1E00
ENDCHAR
STARTCHAR A
ENCODING 65
SWIDTH 550 0
DWIDTH 11 0
BBX 10 11 0 0
BITMAP
1C00
0C00
1E00
1E00
1E00
3300
3F00
3300
6180
6180
F3C0
ENDCHAR
STARTCHAR B
ENCODING 66
SWIDTH 500 0
DWIDTH 10 0
BBX 9 11 0 0
BITMAP
FE00
6300
6180
6180
6300
7E00
6300
6180
6180
6300
FE00
ENDCHAR
STARTCHAR C
ENCODING 67
SWIDTH 500 0
DWIDTH 10 0
BBX 9 11 0 0
BITMAP
1F80
7380
6180
C000
C000
C000
C000
C000
6180
7380
1E00
ENDCHAR
STARTCHAR D
ENCODING 68
SWIDTH 500 0
DWIDTH 10 0
BBX 9 11 0 0
BITMAP
FC00
6700
6300
6180
6180
6180
6180
6180
6300
6700
FC00
ENDCHAR
STARTCHAR E
ENCODING 69
SWIDTH 500 0
DWIDTH 10 0
BBX 9 11 0 0
BITMAP
FF80
6180
6000
6000
6600
7E00
6600
6000
6000
6180
FF80
ENDCHAR
STARTCHAR F
ENCODING 70
SWIDTH 500 0
DWIDTH 10 0
BBX 9 11 0 0
BITMAP
FF80
6180
6000
6000
6600
7E00
6600
6000
6000
6000
F000
ENDCHAR
STARTCHAR G
ENCODING 71
SWIDTH 500 0
DWIDTH 10 0
BBX 9 11 0 0
BITMAP
1F80
7380
6180
C000
C000
C780
C180
C180
6180
7380
1F80
ENDCHAR
STARTCHAR H
ENCODING 72
SWIDTH 550 0
DWIDTH 11 0
BBX 10 11 0 0
BITMAP
F3C0
6180
6180
6180
6180
7F80
6180
6180
6180
6180
F3C0
ENDCHAR
STARTCHAR I
ENCODING 73
SWIDTH 250 0
DWIDTH 5 0
BBX 4 11 0 0
BITMAP
F0
60
60
60
60
60
60
60
60
60
F0
ENDCHAR
STARTCHAR J
ENCODING 74
SWIDTH 500 0
DWIDTH 10 0
BBX 9 11 0 0
BITMAP
0780
0300
0300
0300
0300
0300
0300
0300
C600
EE00
3800
ENDCHAR
STARTCHAR K
ENCODING 75
SWIDTH 500 0
DWIDTH 10 0
BBX 9 11 0 0
BITMAP
F780
6300
6600
6C00
7800
7C00
6600
6600
6300
6300
F780
ENDCHAR
STARTCHAR L
ENCODING 76
SWIDTH 500 0
DWIDTH 10 0
BBX 9 11 0 0
BITMAP
F000
6000
6000
6000
6000
6000
6000
6000
6000
6180
FF80
ENDCHAR
STARTCHAR M
ENCODING 77
SWIDTH 650 0
DWIDTH 13 0
BBX 12 11 0 0
BITMAP
E070
70E0
79E0
6F60
6660
6660
6060
6060
6060
6060
F0F0
ENDCHAR
STARTCHAR N
ENCODING 78
SWIDTH 550 0
DWIDTH 11 0
BBX 10 11 0 0
BITMAP
E3C0
7180
7180
7980
7980
6D80
6D80
6780
6780
6380
F180
ENDCHAR
STARTCHAR O
ENCODING 79
SWIDTH 550 0
DWIDTH 11 0
BBX 10 11 0 0
BITMAP
1E00
7380
6180
C0C0
C0C0
C0C0
C0C0
C0C0
6180
7380
1E00
ENDCHAR
STARTCHAR P
ENCODING 80
SWIDTH 500 0
DWIDTH 10 0
BBX 9 11 0 0
BITMAP
FE00
6300
6180
6180
6300
7E00
6000
6000
6000
6000
F000
ENDCHAR
STARTCHAR Q
ENCODING 81
SWIDTH 550 0
DWIDTH 11 0
BBX 10 13 0 -2
BITMAP
1E00
7380
6180
C0C0
C0C0
C0C0
C0C0
C0C0
6180
7380
1E00
3300
01C0
ENDCHAR
STARTCHAR R
ENCODING 82
SWIDTH 500 0
DWIDTH 10 0
BBX 9 11 0 0
BITMAP
FE00
6300
6180
6180
6300
7E00
6C00
6600
6300
6300
F180
ENDCHAR
STARTCHAR S
ENCODING 83
SWIDTH 450 0
DWIDTH 9 0
BBX 8 11 0 0
BITMAP
3F
67
C3
C0
60
3C
06
03
C3
E6
FC
ENDCHAR
STARTCHAR T
ENCODING 84
SWIDTH 450 0
DWIDTH 9 0
BBX 8 11 0 0
BITMAP
FF
DB
18
18
18
18
18
18
18
18
3C
ENDCHAR
STARTCHAR U
ENCODING 85
SWIDTH 600 0
DWIDTH 12 0
BBX 11 11 0 0
BITMAP
F1E0
60C0
60C0
60C0
60C0
60C0
60C0
60C0
3180
3B80
0E00
ENDCHAR
STARTCHAR V
ENCODING 86
SWIDTH 550 0
DWIDTH 11 0
BBX 10 11 0 0
BITMAP
F3C0
6180
6180
3300
3300
3300
1E00
1E00
1E00
0C00
0C00
ENDCHAR
STARTCHAR W
ENCODING 87
SWIDTH 750 0
DWIDTH 15 0
BBX 14 11 0 0
BITMAP
F03C
6018
6018
3330
3330
3330
1FE0
1FE0
1FE0
0CC0
0CC0
ENDCHAR
STARTCHAR X
ENCODING 88
SWIDTH 550 0
DWIDTH 11 0
BBX 10 11 0 0
BITMAP
F3C0
6180
3300
3300
1E00
0C00
1E00
3300
3300
6180
F3C0
ENDCHAR
STARTCHAR Y
ENCODING 89
SWIDTH 550 0
DWIDTH 11 0
BBX 10 11 0 0
BITMAP
F3C0
6180
3300
3300
1E00
0C00
0C00
0C00
0C00
0C00
1E00
ENDCHAR
STARTCHAR Z
ENCODING 90
SWIDTH 450 0
DWIDTH 9 0
BBX 8 11 0 0
BITMAP
FF
C3
06
0C
0C
18
30
30
60
C3
FF
ENDCHAR
STARTCHAR bracketleft
ENCODING 91
SWIDTH 250 0
DWIDTH 5 0
BBX 4 15 0 -3
BITMAP
F0
C0
C0
C0
C0
C0
C0
C0
C0
C0
C0
C0
C0
C0
F0
ENDCHAR
STARTCHAR backslash
ENCODING 92
SWIDTH 350 0
DWIDTH 7 0
BBX 6 15 0 -3
BITMAP
C0
C0
C0
60
60
60
30
30
30
18
18
18
0C
0C
0C
ENDCHAR
STARTCHAR bracketright
ENCODING 93
SWIDTH 250 0
DWIDTH 5 0
BBX 4 15 0 -3
BITMAP
F0
30
30
30
30
30
30
30
30
30
30
30
30
30
F0
ENDCHAR
STARTCHAR asciicircum
ENCODING 94
SWIDTH 350 0
DWIDTH 7 0
BBX 6 3 0 9
BITMAP
30
78
CC
ENDCHAR
STARTCHAR underscore
ENCODING 95
SWIDTH 450 0
DWIDTH 9 0
BBX 8 1 0 -1
BITMAP
FF
ENDCHAR
STARTCHAR grave
ENCODING 96
SWIDTH 250 0
DWIDTH 5 0
BBX 4 3 0 9
BITMAP
C0
60
30
ENDCHAR
STARTCHAR a
ENCODING 97
SWIDTH 450 0
DWIDTH 9 0
BBX 8 8 0 0
BITMAP
3C
66
06
3E
66
C6
CE
7F
ENDCHAR
STARTCHAR b
ENCODING 98
SWIDTH 500 0
DWIDTH 10 0
BBX 9 12 0 0
BITMAP
E000
6000
6000
6000
7E00
7300
6180
6180
6180
6180
7300
FE00
ENDCHAR
STARTCHAR c
ENCODING 99
SWIDTH 450 0
DWIDTH 9 0
BBX 8 8 0 0
BITMAP
3F
67
C3
C0
C0
C3
66
3C
ENDCHAR
STARTCHAR d
ENCODING 100
SWIDTH 500 0
DWIDTH 10 0
BBX 9 12 0 0
BITMAP
0700
0300
0300
0300
3F00
6700
C300
C300
C300
C300
6700
3F80
ENDCHAR
STARTCHAR e
ENCODING 101
SWIDTH 450 0
DWIDTH 9 0
BBX 8 8 0 0
BITMAP
3C
66
C3
FF
C0
C0
66
3C
ENDCHAR
STARTCHAR f
ENCODING 102
SWIDTH 250 0
DWIDTH 5 0
BBX 6 12 0 0
BITMAP
1C
30
60
60
F0
60
60
60
60
60
60
F0
ENDCHAR
STARTCHAR g
ENCODING 103
SWIDTH 500 0
DWIDTH 10 0
BBX 9 12 0 -4
BITMAP
3F80
6700
C300
C300
C300
C300
6700
3F00
0300
0300
0600
3C00
ENDCHAR
STARTCHAR h
ENCODING 104
SWIDTH 500 0
DWIDTH 10 0
BBX 9 12 0 0
BITMAP
E000
6000
6000
6000
7C00
7600
6300
6300
6300
6300
6300
F780
ENDCHAR
STARTCHAR i
ENCODING 105
SWIDTH 250 0
DWIDTH 5 0
BBX 4 12 0 0
BITMAP
60
60
00
00
E0
60
60
60
60
60
60
F0
ENDCHAR
STARTCHAR j
ENCODING 106
SWIDTH 200 0
DWIDTH 4 0
BBX 5 16 -2 -4
BITMAP
18
18
00
00
38
18
18
18
18
18
18
18
18
18
30
E0
ENDCHAR
STARTCHAR k
ENCODING 107
SWIDTH 500 0
DWIDTH 10 0
BBX 9 12 0 0
BITMAP
E000
6000
6000
6000
6F00
6600
6C00
7800
7C00
6600
6300
F780
ENDCHAR
STARTCHAR l
ENCODING 108
SWIDTH 250 0
DWIDTH 5 0
BBX 4 12 0 0
BITMAP
E0
60
60
60
60
60
60
60
60
60
60
F0
ENDCHAR
STARTCHAR m
ENCODING 109
SWIDTH 750 0
DWIDTH 15 0
BBX 14 8 0 0
BITMAP
FCE0
77B0
6318
6318
6318
6318
6318
F7BC
ENDCHAR
STARTCHAR n
ENCODING 110
SWIDTH 500 0
DWIDTH 10 0
BBX 9 8 0 0
BITMAP
FC00
7600
6300
6300
6300
6300
6300
F780
ENDCHAR
STARTCHAR o
ENCODING 111
SWIDTH 450 0
DWIDTH 9 0
BBX 8 8 0 0
BITMAP
3C
66
C3
C3
C3
C3
66
3C
ENDCHAR
STARTCHAR p
ENCODING 112
SWIDTH 500 0
DWIDTH 10 0
BBX 9 12 0 -4
BITMAP
FE00
7300
6180
6180
6180
6180
7300
7E00
6000
6000
6000
F000
ENDCHAR
STARTCHAR q
ENCODING 113
SWIDTH 500 0
DWIDTH 10 0
BBX 9 12 0 -4
BITMAP
3F80
6700
C300
C300
C300
C300
6700
3F00
0300
0300
0300
0780
ENDCHAR
STARTCHAR r
ENCODING 114
SWIDTH 450 0
DWIDTH 9 0
BBX 8 8 0 0
BITMAP
FE
73
60
60
60
60
60
F0
ENDCHAR
STARTCHAR s
ENCODING 115
SWIDTH 400 0
DWIDTH 8 0
BBX 7 8 0 0
BITMAP
7E
CE
C6
70
1C
C6
E6
FC
ENDCHAR
STARTCHAR t
ENCODING 116
SWIDTH 250 0
DWIDTH 5 0
BBX 5 12 0 0
BITMAP
60
60
60
60
F0
60
60
60
60
60
60
38
ENDCHAR
STARTCHAR u
ENCODING 117
SWIDTH 500 0
DWIDTH 10 0
BBX 9 8 0 0
BITMAP
E700
6300
6300
6300
6300
6300
3700
1F80
ENDCHAR
STARTCHAR v
ENCODING 118
SWIDTH 450 0
DWIDTH 9 0
BBX 8 8 0 0
BITMAP
FF
66
66
3C
3C
3C
18
18
ENDCHAR
STARTCHAR w
ENCODING 119
SWIDTH 550 0
DWIDTH 11 0
BBX 10 8 0 0
BITMAP
F3C0
6180
6180
3F00
3F00
3F00
1E00
1E00
ENDCHAR
STARTCHAR x
ENCODING 120
SWIDTH 450 0
DWIDTH 9 0
BBX 8 8 0 0
BITMAP
FF
66
3C
18
18
3C
66
FF
ENDCHAR
STARTCHAR y
ENCODING 121
SWIDTH 450 0
DWIDTH 9 0
BBX 8 12 0 -4
BITMAP
FF
66
66
3C
3C
3C
18
18
30
30
60
C0
ENDCHAR
STARTCHAR z
ENCODING 122
SWIDTH 400 0
DWIDTH 8 0
BBX 7 8 0 0
BITMAP
FE
C6
0C
18
30
60
C6
FE
ENDCHAR
STARTCHAR braceleft
ENCODING 123
SWIDTH 350 0
DWIDTH 7 0
BBX 6 15 0 -3
BITMAP
1C
30
30
30
30
30
30
E0
30
30
30
30
30
30
1C
ENDCHAR
STARTCHAR bar
ENCODING 124
SWIDTH 150 0
DWIDTH 3 0
BBX 2 15 0 -3
BITMAP
C0
C0
C0
C0
C0
C0
C0
C0
C0
C0
C0
C0
C0
C0
C0
ENDCHAR
STARTCHAR braceright
ENCODING 125
SWIDTH 350 0
DWIDTH 7 0
BBX 6 15 0 -3
BITMAP
E0
30
30
30
30
30
30
1C
30
30
30
30
30
30
E0
ENDCHAR
STARTCHAR asciitilde
ENCODING 126
SWIDTH 400 0
DWIDTH 8 0
BBX 7 2 0 10
BITMAP
76
DC
ENDCHAR
STARTCHAR nonbreakingspace
ENCODING 160
SWIDTH 300 0
DWIDTH 6 0
BBX 1 1 0 0
BITMAP
00
ENDCHAR
STARTCHAR exclamdown
ENCODING 161
SWIDTH 150 0
DWIDTH 3 0
BBX 2 11 0 -3
BITMAP
C0
C0
00
C0
C0
C0
C0
C0
C0
C0
C0
ENDCHAR
STARTCHAR cent
ENCODING 162
SWIDTH 450 0
DWIDTH 9 0
BBX 8 12 0 -2
BITMAP
18
18
3F
7F
DB
D8
D8
DB
7E
3C
18
18
ENDCHAR
STARTCHAR sterling
ENCODING 163
SWIDTH 450 0
DWIDTH 9 0
BBX 8 11 0 0
BITMAP
1C
36
30
30
7C
30
30
30
30
63
FF
ENDCHAR
STARTCHAR currency
ENCODING 164
SWIDTH 400 0
DWIDTH 8 0
BBX 7 6 0 2
BITMAP
FE
6C
C6
C6
6C
FE
ENDCHAR
STARTCHAR yen
ENCODING 165
SWIDTH 550 0
DWIDTH 11 0
BBX 10 11 0 0
BITMAP
F3C0
6180
3300
3300
1E00
3F00
0C00
3F00
0C00
0C00
1E00
ENDCHAR
STARTCHAR brokenbar
ENCODING 166
SWIDTH 150 0
DWIDTH 3 0
BBX 2 15 0 -3
BITMAP
C0
C0
C0
C0
C0
C0
00
00
00
C0
C0
C0
C0
C0
C0
ENDCHAR
STARTCHAR section
ENCODING 167
SWIDTH 400 0
DWIDTH 8 0
BBX 7 12 0 -1
BITMAP
38
6C
60
38
6C
C6
C6
6C
38
0C
6C
38
ENDCHAR
STARTCHAR dieresis
ENCODING 168
SWIDTH 400 0
DWIDTH 8 0
BBX 7 1 0 11
BITMAP
EE
ENDCHAR
STARTCHAR copyright
ENCODING 169
SWIDTH 650 0
DWIDTH 13 0
BBX 12 11 0 0
BITMAP
0F00
39C0
6060
6F60
D9B0
D830
D9B0
6F60
6060
39C0
0F00
ENDCHAR
STARTCHAR ordfeminine
ENCODING 170
SWIDTH 400 0
DWIDTH 8 0
BBX 7 7 0 4
BITMAP
78
0C
7C
CC
7E
00
7C
ENDCHAR
STARTCHAR guillemotleft
ENCODING 171
SWIDTH 450 0
DWIDTH 9 0
BBX 8 7 0 1
BITMAP
1B
36
6C
D8
6C
36
1B
ENDCHAR
STARTCHAR logicalnot
ENCODING 172
SWIDTH 450 0
DWIDTH 9 0
BBX 8 3 0 3
BITMAP
FF
03
03
ENDCHAR
STARTCHAR hyphen
ENCODING 173
SWIDTH 400 0
DWIDTH 8 0
BBX 7 1 0 4
BITMAP
FE
ENDCHAR
STARTCHAR registered
ENCODING 174
SWIDTH 650 0
DWIDTH 13 0
BBX 12 11 0 0
BITMAP
0F00
39C0
6060
7F60
D9B0
DF30
DB30
79E0
6060
39C0
0F00
ENDCHAR
STARTCHAR macron
ENCODING 175
SWIDTH 350 0
DWIDTH 7 0
BBX 6 1 0 11
BITMAP
FC
ENDCHAR
STARTCHAR degree
ENCODING 176
SWIDTH 350 0
DWIDTH 7 0
BBX 6 5 0 6
BITMAP
78
CC
CC
CC
78
ENDCHAR
STARTCHAR plusminus
ENCODING 177
SWIDTH 450 0
DWIDTH 9 0
BBX 8 9 0 0
BITMAP
18
18
18
FF
18
18
18
00
FF
ENDCHAR
STARTCHAR twosuperior
ENCODING 178
SWIDTH 350 0
DWIDTH 7 0
BBX 6 6 0 6
BITMAP
78
CC
18
30
60
FC
ENDCHAR
STARTCHAR threesuperior
ENCODING 179
SWIDTH 350 0
DWIDTH 7 0
BBX 6 6 0 6
BITMAP
78
CC
38
0C
CC
78
ENDCHAR
STARTCHAR acute
ENCODING 180
SWIDTH 250 0
DWIDTH 5 0
BBX 4 3 0 9
BITMAP
30
60
C0
ENDCHAR
STARTCHAR mu
ENCODING 181
SWIDTH 500 0
DWIDTH 10 0
BBX 9 12 0 -4
BITMAP
E700
6300
6300
6300
6300
6300
7700
7F80
6000
6000
6000
6000
ENDCHAR
STARTCHAR paragraph
ENCODING 182
SWIDTH 550 0
DWIDTH 11 0
BBX 10 12 0 -1
BITMAP
3FC0
7F80
FF80
FF80
FF80
7F80
3F80
0780
0780
0780
0780
0780
ENDCHAR
STARTCHAR periodcentered
ENCODING 183
SWIDTH 150 0
DWIDTH 3 0
BBX 2 2 0 5
BITMAP
C0
C0
ENDCHAR
STARTCHAR cedilla
ENCODING 184
SWIDTH 350 0
DWIDTH 7 0
BBX 4 4 1 -4
BITMAP
60
30
F0
60
ENDCHAR
STARTCHAR onesuperior
ENCODING 185
SWIDTH 350 0
DWIDTH 7 0
BBX 4 6 1 6
BITMAP
60
E0
60
60
60
F0
ENDCHAR
STARTCHAR ordmasculine
ENCODING 186
SWIDTH 350 0
DWIDTH 7 0
BBX 6 7 0 4
BITMAP
78
CC
CC
CC
78
00
78
ENDCHAR
STARTCHAR guillemotright
ENCODING 187
SWIDTH 450 0
DWIDTH 9 0
BBX 8 7 0 1
BITMAP
D8
6C
36
1B
36
6C
D8
ENDCHAR
STARTCHAR onequarter
ENCODING 188
SWIDTH 550 0
DWIDTH 11 0
BBX 10 11 0 0
BITMAP
6300
E300
6600
6600
FC00
0C00
0D80
1B80
1F80
37C0
3180
ENDCHAR
STARTCHAR onehalf
ENCODING 189
SWIDTH 550 0
DWIDTH 11 0
BBX 10 11 0 0
BITMAP
6300
E300
6600
6600
FC00
0C00
0F80
1EC0
1980
3300
37C0
ENDCHAR
STARTCHAR threequarters
ENCODING 190
SWIDTH 550 0
DWIDTH 11 0
BBX 10 11 0 0
BITMAP
7300
DB00
3600
DE00
7C00
0C00
0D80
1B80
1F80
37C0
3180
ENDCHAR
STARTCHAR questiondown
ENCODING 191
SWIDTH 450 0
DWIDTH 9 0
BBX 8 11 0 -3
BITMAP
18
18
00
18
18
30
60
C0
C3
66
3C
ENDCHAR
STARTCHAR Agrave
ENCODING 192
SWIDTH 550 0
DWIDTH 11 0
BBX 10 14 0 0
BITMAP
1800
0C00
0000
1C00
0C00
1E00
1E00
1E00
3300
3F00
3300
6180
6180
F3C0
ENDCHAR
STARTCHAR Aacute
ENCODING 193
SWIDTH 550 0
DWIDTH 11 0
BBX 10 14 0 0
BITMAP
0600
0C00
0000
1C00
0C00
1E00
1E00
1E00
3300
3F00
3300
6180
6180
F3C0
ENDCHAR
STARTCHAR Acircumflex
ENCODING 194
SWIDTH 550 0
DWIDTH 11 0
BBX 10 14 0 0
BITMAP
0C00
1E00
0000
1C00
0C00
1E00
1E00
1E00
3300
3F00
3300
6180
6180
F3C0
ENDCHAR
STARTCHAR Atilde
ENCODING 195
SWIDTH 550 0
DWIDTH 11 0
BBX 10 14 0 0
BITMAP
1F00
3E00
0000
1C00
0C00
1E00
1E00
1E00
3300
3F00
3300
6180
6180
F3C0
ENDCHAR
STARTCHAR Adieresis
ENCODING 196
SWIDTH 550 0
DWIDTH 11 0
BBX 10 13 0 0
BITMAP
3F00
0000
1C00
0C00
1E00
1E00
1E00
3300
3F00
3300
6180
6180
F3C0
ENDCHAR
STARTCHAR Aring
ENCODING 197
SWIDTH 550 0
DWIDTH 11 0
BBX 10 14 0 0
BITMAP
1E00
3300
1E00
0C00
0C00
1E00
1E00
1E00
3300
3F00
3300
6180
6180
F3C0
ENDCHAR
STARTCHAR AE
ENCODING 198
SWIDTH 750 0
DWIDTH 15 0
BBX 14 11 0 0
BITMAP
0FFC
070C
0F00
0F00
1B30
1FF0
3330
3300
6300
630C
F7FC
ENDCHAR
STARTCHAR Ccedilla
ENCODING 199
SWIDTH 500 0
DWIDTH 10 0
BBX 9 15 0 -4
BITMAP
1F80
7380
6180
C000
C000
C000
C000
C000
6180
7380
1E00
0C00
0600
1E00
0C00
ENDCHAR
STARTCHAR Egrave
ENCODING 200
SWIDTH 500 0
DWIDTH 10 0
BBX 9 14 0 0
BITMAP
1800
0C00
0000
FF80
6180
6000
6000
6600
7E00
6600
6000
6000
6180
FF80
ENDCHAR
STARTCHAR Eacute
ENCODING 201
SWIDTH 500 0
DWIDTH 10 0
BBX 9 14 0 0
BITMAP
0C00
1800
0000
FF80
6180
6000
6000
6600
7E00
6600
6000
6000
6180
FF80
ENDCHAR
STARTCHAR Ecircumflex
ENCODING 202
SWIDTH 500 0
DWIDTH 10 0
BBX 9 14 0 0
BITMAP
1C00
3600
0000
FF80
6180
6000
6000
6600
7E00
6600
6000
6000
6180
FF80
ENDCHAR
STARTCHAR Edieresis
ENCODING 203
SWIDTH 500 0
DWIDTH 10 0
BBX 9 13 0 0
BITMAP
7700
0000
FF80
6180
6000
6000
6600
7E00
6600
6000
6000
6180
FF80
ENDCHAR
STARTCHAR Igrave
ENCODING 204
SWIDTH 250 0
DWIDTH 5 0
BBX 4 14 0 0
BITMAP
C0
60
00
F0
60
60
60
60
60
60
60
60
60
F0
ENDCHAR
STARTCHAR Iacute
ENCODING 205
SWIDTH 250 0
DWIDTH 5 0
BBX 4 14 0 0
BITMAP
30
60
00
F0
60
60
60
60
60
60
60
60
60
F0
ENDCHAR
STARTCHAR Icircumflex
ENCODING 206
SWIDTH 250 0
DWIDTH 5 0
BBX 4 14 0 0
BITMAP
60
F0
00
F0
60
60
60
60
60
60
60
60
60
F0
ENDCHAR
STARTCHAR Idieresis
ENCODING 207
SWIDTH 250 0
DWIDTH 5 0
BBX 6 13 -1 0
BITMAP
FC
00
78
30
30
30
30
30
30
30
30
30
78
ENDCHAR
STARTCHAR Eth
ENCODING 208
SWIDTH 500 0
DWIDTH 10 0
BBX 9 11 0 0
BITMAP
FC00
6700
6300
6180
6180
F180
6180
6180
6300
6700
FC00
ENDCHAR
STARTCHAR Ntilde
ENCODING 209
SWIDTH 550 0
DWIDTH 11 0
BBX 10 14 0 0
BITMAP
3D80
6F00
0000
E3C0
7180
7180
7980
7980
6D80
6D80
6780
6780
6380
F180
ENDCHAR
STARTCHAR Ograve
ENCODING 210
SWIDTH 550 0
DWIDTH 11 0
BBX 10 14 0 0
BITMAP
1800
0C00
0000
1E00
7380
6180
C0C0
C0C0
C0C0
C0C0
C0C0
6180
7380
1E00
ENDCHAR
STARTCHAR Oacute
ENCODING 211
SWIDTH 550 0
DWIDTH 11 0
BBX 10 14 0 0
BITMAP
0600
0C00
0000
1E00
7380
6180
C0C0
C0C0
C0C0
C0C0
C0C0
6180
7380
1E00
ENDCHAR
STARTCHAR Ocircumflex
ENCODING 212
SWIDTH 550 0
DWIDTH 11 0
BBX 10 14 0 0
BITMAP
0C00
1E00
0000
1E00
7380
6180
C0C0
C0C0
C0C0
C0C0
C0C0
6180
7380
1E00
ENDCHAR
STARTCHAR Otilde
ENCODING 213
SWIDTH 550 0
DWIDTH 11 0
BBX 10 14 0 0
BITMAP
1F00
3E00
0000
1E00
7380
6180
C0C0
C0C0
C0C0
C0C0
C0C0
6180
7380
1E00
ENDCHAR
STARTCHAR Odieresis
ENCODING 214
SWIDTH 550 0
DWIDTH 11 0
BBX 10 13 0 0
BITMAP
3F00
0000
1E00
7380
6180
C0C0
C0C0
C0C0
C0C0
C0C0
6180
7380
1E00
ENDCHAR
STARTCHAR multiply
ENCODING 215
SWIDTH 450 0
DWIDTH 9 0
BBX 8 7 0 1
BITMAP
C3
66
3C
18
3C
66
C3
ENDCHAR
STARTCHAR Oslash
ENCODING 216
SWIDTH 550 0
DWIDTH 11 0
BBX 10 11 0 0
BITMAP
1EC0
7380
6180
C3C0
C6C0
CCC0
D8C0
F0C0
6180
7380
DE00
ENDCHAR
STARTCHAR Ugrave
ENCODING 217
SWIDTH 600 0
DWIDTH 12 0
BBX 11 14 0 0
BITMAP
0C00
0600
0000
F1E0
60C0
60C0
60C0
60C0
60C0
60C0
60C0
3180
3B80
0E00
ENDCHAR
STARTCHAR Uacute
ENCODING 218
SWIDTH 600 0
DWIDTH 12 0
BBX 11 14 0 0
BITMAP
0600
0C00
0000
F1E0
60C0
60C0
60C0
60C0
60C0
60C0
60C0
3180
3B80
0E00
ENDCHAR
STARTCHAR Ucircumflex
ENCODING 219
SWIDTH 600 0
DWIDTH 12 0
BBX 11 14 0 0
BITMAP
0E00
1B00
0000
F1E0
60C0
60C0
60C0
60C0
60C0
60C0
60C0
3180
3B80
0E00
ENDCHAR
STARTCHAR Udieresis
ENCODING 220
SWIDTH 600 0
DWIDTH 12 0
BBX 11 13 0 0
BITMAP
3B80
0000
F1E0
60C0
60C0
60C0
60C0
60C0
60C0
60C0
3180
3B80
0E00
ENDCHAR
STARTCHAR Yacute
ENCODING 221
SWIDTH 550 0
DWIDTH 11 0
BBX 10 14 0 0
BITMAP
0600
0C00
0000
F3C0
6180
3300
3300
1E00
0C00
0C00
0C00
0C00
0C00
1E00
ENDCHAR
STARTCHAR Thorn
ENCODING 222
SWIDTH 500 0
DWIDTH 10 0
BBX 9 11 0 0
BITMAP
F000
6000
7E00
6300
6180
6180
6180
6300
7E00
6000
F000
ENDCHAR
STARTCHAR germandbls
ENCODING 223
SWIDTH 500 0
DWIDTH 10 0
BBX 9 11 0 0
BITMAP
1E00
3300
6180
6180
6300
6E00
6300
6180
6180
6300
EE00
ENDCHAR
STARTCHAR agrave
ENCODING 224
SWIDTH 450 0
DWIDTH 9 0
BBX 8 11 0 0
BITMAP
30
18
00
3C
66
06
3E
66
C6
CE
7F
ENDCHAR
STARTCHAR aacute
ENCODING 225
SWIDTH 450 0
DWIDTH 9 0
BBX 8 11 0 0
BITMAP
0C
18
00
3C
66
06
3E
66
C6
CE
7F
ENDCHAR
STARTCHAR acircumflex
ENCODING 226
SWIDTH 450 0
DWIDTH 9 0
BBX 8 11 0 0
BITMAP
18
3C
00
3C
66
06
3E
66
C6
CE
7F
ENDCHAR
STARTCHAR atilde
ENCODING 227
SWIDTH 450 0
DWIDTH 9 0
BBX 8 11 0 0
BITMAP
3E
7C
00
3C
66
06
3E
66
C6
CE
7F
ENDCHAR
STARTCHAR adieresis
ENCODING 228
SWIDTH 450 0
DWIDTH 9 0
BBX 8 10 0 0
BITMAP
7E
00
3C
66
06
3E
66
C6
CE
7F
ENDCHAR
STARTCHAR aring
ENCODING 229
SWIDTH 450 0
DWIDTH 9 0
BBX 8 12 0 0
BITMAP
3C
66
3C
00
3C
66
06
3E
66
C6
CE
7F
ENDCHAR
STARTCHAR ae
ENCODING 230
SWIDTH 700 0
DWIDTH 14 0
BBX 13 8 0 0
BITMAP
3DE0
6730
0618
3FF8
6600
C600
CF30
79E0
ENDCHAR
STARTCHAR ccedilla
ENCODING 231
SWIDTH 450 0
DWIDTH 9 0
BBX 8 12 0 -4
BITMAP
3F
67
C3
C0
C0
C3
66
3C
18
0C
3C
18
ENDCHAR
STARTCHAR egrave
ENCODING 232
SWIDTH 450 0
DWIDTH 9 0
BBX 8 11 0 0
BITMAP
30
18
00
3C
66
C3
FF
C0
C0
66
3C
ENDCHAR
STARTCHAR eacute
ENCODING 233
SWIDTH 450 0
DWIDTH 9 0
BBX 8 11 0 0
BITMAP
0C
18
00
3C
66
C3
FF
C0
C0
66
3C
ENDCHAR
STARTCHAR ecircumflex
ENCODING 234
SWIDTH 450 0
DWIDTH 9 0
BBX 8 11 0 0
BITMAP
18
3C
00
3C
66
C3
FF
C0
C0
66
3C
ENDCHAR
STARTCHAR edieresis
ENCODING 235
SWIDTH 450 0
DWIDTH 9 0
BBX 8 10 0 0
BITMAP
7E
00
3C
66
C3
FF
C0
C0
66
3C
ENDCHAR
STARTCHAR igrave
ENCODING 236
SWIDTH 250 0
DWIDTH 5 0
BBX 4 12 0 0
BITMAP
C0
60
00
00
E0
60
60
60
60
60
60
F0
ENDCHAR
STARTCHAR iacute
ENCODING 237
SWIDTH 250 0
DWIDTH 5 0
BBX 4 12 0 0
BITMAP
30
60
00
00
E0
60
60
60
60
60
60
F0
ENDCHAR
STARTCHAR icircumflex
ENCODING 238
SWIDTH 250 0
DWIDTH 5 0
BBX 4 12 0 0
BITMAP
60
F0
00
00
E0
60
60
60
60
60
60
F0
ENDCHAR
STARTCHAR idieresis
ENCODING 239
SWIDTH 250 0
DWIDTH 5 0
BBX 6 11 -1 0
BITMAP
FC
00
00
70
30
30
30
30
30
30
78
ENDCHAR
STARTCHAR eth
ENCODING 240
SWIDTH 450 0
DWIDTH 9 0
BBX 8 12 0 0
BITMAP
7B
0E
1E
03
3F
67
C3
C3
C3
C3
66
3C
ENDCHAR
STARTCHAR ntilde
ENCODING 241
SWIDTH 500 0
DWIDTH 10 0
BBX 9 11 0 0
BITMAP
3B00
6E00
0000
FC00
7600
6300
6300
6300
6300
6300
F780
ENDCHAR
STARTCHAR ograve
ENCODING 242
SWIDTH 450 0
DWIDTH 9 0
BBX 8 11 0 0
BITMAP
30
18
00
3C
66
C3
C3
C3
C3
66
3C
ENDCHAR
STARTCHAR oacute
ENCODING 243
SWIDTH 450 0
DWIDTH 9 0
BBX 8 11 0 0
BITMAP
0C
18
00
3C
66
C3
C3
C3
C3
66
3C
ENDCHAR
STARTCHAR ocircumflex
ENCODING 244
SWIDTH 450 0
DWIDTH 9 0
BBX 8 11 0 0
BITMAP
18
3C
00
3C
66
C3
C3
C3
C3
66
3C
ENDCHAR
STARTCHAR otilde
ENCODING 245
SWIDTH 450 0
DWIDTH 9 0
BBX 8 11 0 0
BITMAP
3E
7C
00
3C
66
C3
C3
C3
C3
66
3C
ENDCHAR
STARTCHAR odieresis
ENCODING 246
SWIDTH 450 0
DWIDTH 9 0
BBX 8 10 0 0
BITMAP
7E
00
3C
66
C3
C3
C3
C3
66
3C
ENDCHAR
STARTCHAR divide
ENCODING 247
SWIDTH 450 0
DWIDTH 9 0
BBX 8 7 0 1
BITMAP
18
18
00
FF
00
18
18
ENDCHAR
STARTCHAR oslash
ENCODING 248
SWIDTH 450 0
DWIDTH 9 0
BBX 8 8 0 0
BITMAP
3F
66
CF
DB
DB
F3
66
FC
ENDCHAR
STARTCHAR ugrave
ENCODING 249
SWIDTH 500 0
DWIDTH 10 0
BBX 9 11 0 0
BITMAP
3000
1800
0000
E700
6300
6300
6300
6300
6300
3700
1F80
ENDCHAR
STARTCHAR uacute
ENCODING 250
SWIDTH 500 0
DWIDTH 10 0
BBX 9 11 0 0
BITMAP
0C00
1800
0000
E700
6300
6300
6300
6300
6300
3700
1F80
ENDCHAR
STARTCHAR ucircumflex
ENCODING 251
SWIDTH 500 0
DWIDTH 10 0
BBX 9 11 0 0
BITMAP
1800
3C00
0000
E700
6300
6300
6300
6300
6300
3700
1F80
ENDCHAR
STARTCHAR udieresis
ENCODING 252
SWIDTH 500 0
DWIDTH 10 0
BBX 9 10 0 0
BITMAP
7E00
0000
E700
6300
6300
6300
6300
6300
3700
1F80
ENDCHAR
STARTCHAR yacute
ENCODING 253
SWIDTH 450 0
DWIDTH 9 0
BBX 8 15 0 -4
BITMAP
0C
18
00
FF
66
66
3C
3C
3C
18
18
30
30
60
C0
ENDCHAR
STARTCHAR thorn
ENCODING 254
SWIDTH 500 0
DWIDTH 10 0
BBX 9 16 0 -4
BITMAP
E000
6000
6000
6000
7E00
7300
6180
6180
6180
6180
7300
7E00
6000
6000
6000
F000
ENDCHAR
STARTCHAR ydieresis
ENCODING 255
SWIDTH 450 0
DWIDTH 9 0
BBX 8 14 0 -4
BITMAP
7E
00
FF
66
66
3C
3C
3C
18
18
30
30
60
C0
ENDCHAR
STARTCHAR Amacron
ENCODING 256
SWIDTH 550 0
DWIDTH 11 0
BBX 10 13 0 0
BITMAP
3F00
0000
1C00
0C00
1E00
1E00
1E00
3300
3F00
3300
6180
6180
F3C0
ENDCHAR
STARTCHAR amacron
ENCODING 257
SWIDTH 450 0
DWIDTH 9 0
BBX 8 10 0 0
BITMAP
7E
00
3C
66
06
3E
66
C6
CE
7F
ENDCHAR
STARTCHAR Abreve
ENCODING 258
SWIDTH 550 0
DWIDTH 11 0
BBX 10 14 0 0
BITMAP
3300
1E00
0000
1C00
0C00
1E00
1E00
1E00
3300
3F00
3300
6180
6180
F3C0
ENDCHAR
STARTCHAR abreve
ENCODING 259
SWIDTH 450 0
DWIDTH 9 0
BBX 8 11 0 0
BITMAP
66
3C
00
3C
66
06
3E
66
C6
CE
7F
ENDCHAR
STARTCHAR Aogonek
ENCODING 260
SWIDTH 550 0
DWIDTH 11 0
BBX 10 15 0 -4
BITMAP
1C00
0C00
1E00
1E00
1E00
3300
3F00
3300
6180
6180
F3C0
0C00
1800
1E00
0C00
ENDCHAR
STARTCHAR aogonek
ENCODING 261
SWIDTH 450 0
DWIDTH 9 0
BBX 8 12 0 -4
BITMAP
3C
66
06
3E
66
C6
CE
7F
30
60
78
30
ENDCHAR
STARTCHAR Cacute
ENCODING 262
SWIDTH 500 0
DWIDTH 10 0
BBX 9 14 0 0
BITMAP
0600
0C00
0000
1F80
7380
6180
C000
C000
C000
C000
C000
6180
7380
1E00
ENDCHAR
STARTCHAR cacute
ENCODING 263
SWIDTH 450 0
DWIDTH 9 0
BBX 8 11 0 0
BITMAP
0C
18
00
3F
67
C3
C0
C0
C3
66
3C
ENDCHAR
STARTCHAR Ccircumflex
ENCODING 264
SWIDTH 500 0
DWIDTH 10 0
BBX 9 14 0 0
BITMAP
0C00
1E00
0000
1F80
7380
6180
C000
C000
C000
C000
C000
6180
7380
1E00
ENDCHAR
STARTCHAR ccircumflex
ENCODING 265
SWIDTH 450 0
DWIDTH 9 0
BBX 8 11 0 0
BITMAP
18
3C
00
3F
67
C3
C0
C0
C3
66
3C
ENDCHAR
STARTCHAR Cdotaccent
ENCODING 266
SWIDTH 500 0
DWIDTH 10 0
BBX 9 13 0 0
BITMAP
1C00
0000
1F80
7380
6180
C000
C000
C000
C000
C000
6180
7380
1E00
ENDCHAR
STARTCHAR cdotaccent
ENCODING 267
SWIDTH 450 0
DWIDTH 9 0
BBX 8 10 0 0
BITMAP
38
00
3F
67
C3
C0
C0
C3
66
3C
ENDCHAR
STARTCHAR Ccaron
ENCODING 268
SWIDTH 500 0
DWIDTH 10 0
BBX 9 14 0 0
BITMAP
1E00
0C00
0000
1F80
7380
6180
C000
C000
C000
C000
C000
6180
7380
1E00
ENDCHAR
STARTCHAR ccaron
ENCODING 269
SWIDTH 450 0
DWIDTH 9 0
BBX 8 11 0 0
BITMAP
3C
18
00
3F
67
C3
C0
C0
C3
66
3C
ENDCHAR
STARTCHAR Dcaron
ENCODING 270
SWIDTH 500 0
DWIDTH 10 0
BBX 9 14 0 0
BITMAP
3C00
1800
0000
FC00
6700
6300
6180
6180
6180
6180
6180
6300
6700
FC00
ENDCHAR
STARTCHAR dcaron
ENCODING 271
SWIDTH 500 0
DWIDTH 10 0
BBX 11 12 0 0
BITMAP
07E0
03E0
0360
03C0
3F00
6700
C300
C300
C300
C300
6700
3F80
ENDCHAR
STARTCHAR Dcroat
ENCODING 272
SWIDTH 500 0
DWIDTH 10 0
BBX 9 11 0 0
BITMAP
FC00
6700
6300
6180
6180
F180
6180
6180
6300
6700
FC00
ENDCHAR
STARTCHAR dcroat
ENCODING 273
SWIDTH 500 0
DWIDTH 10 0
BBX 9 12 0 0
BITMAP
0700
0300
0780
0300
3F00
6700
C300
C300
C300
C300
6700
3F80
ENDCHAR
STARTCHAR Emacron
ENCODING 274
SWIDTH 500 0
DWIDTH 10 0
BBX 9 13 0 0
BITMAP
3E00
0000
FF80
6180
6000
6000
6600
7E00
6600
6000
6000
6180
FF80
ENDCHAR
STARTCHAR emacron
ENCODING 275
SWIDTH 450 0
DWIDTH 9 0
BBX 8 10 0 0
BITMAP
7E
00
3C
66
C3
FF
C0
C0
66
3C
ENDCHAR
STARTCHAR Ebreve
ENCODING 276
SWIDTH 500 0
DWIDTH 10 0
BBX 9 14 0 0
BITMAP
6300
3E00
0000
FF80
6180
6000
6000
6600
7E00
6600
6000
6000
6180
FF80
ENDCHAR
STARTCHAR ebreve
ENCODING 277
SWIDTH 450 0
DWIDTH 9 0
BBX 8 11 0 0
BITMAP
66
3C
00
3C
66
C3
FF
C0
C0
66
3C
ENDCHAR
STARTCHAR Edotaccent
ENCODING 278
SWIDTH 500 0
DWIDTH 10 0
BBX 9 13 0 0
BITMAP
1C00
0000
FF80
6180
6000
6000
6600
7E00
6600
6000
6000
6180
FF80
ENDCHAR
STARTCHAR edotaccent
ENCODING 279
SWIDTH 450 0
DWIDTH 9 0
BBX 8 10 0 0
BITMAP
38
00
3C
66
C3
FF
C0
C0
66
3C
ENDCHAR
STARTCHAR Eogonek
ENCODING 280
SWIDTH 500 0
DWIDTH 10 0
BBX 9 15 0 -4
BITMAP
FF80
6180
6000
6000
6600
7E00
6600
6000
6000
6180
FF80
0C00
1800
1E00
0C00
ENDCHAR
STARTCHAR eogonek
ENCODING 281
SWIDTH 450 0
DWIDTH 9 0
BBX 8 12 0 -4
BITMAP
3C
66
C3
FF
C0
C0
66
3C
18
30
3C
18
ENDCHAR
STARTCHAR Ecaron
ENCODING 282
SWIDTH 500 0
DWIDTH 10 0
BBX 9 14 0 0
BITMAP
3600
1C00
0000
FF80
6180
6000
6000
6600
7E00
6600
6000
6000
6180
FF80
ENDCHAR
STARTCHAR ecaron
ENCODING 283
SWIDTH 450 0
DWIDTH 9 0
BBX 8 11 0 0
BITMAP
3C
18
00
3C
66
C3
FF
C0
C0
66
3C
ENDCHAR
STARTCHAR Gcircumflex
ENCODING 284
SWIDTH 500 0
DWIDTH 10 0
BBX 9 14 0 0
BITMAP
0C00
1E00
0000
1F80
7380
6180
C000
C000
C780
C180
C180
6180
7380
1F80
ENDCHAR
STARTCHAR gcircumflex
ENCODING 285
SWIDTH 500 0
DWIDTH 10 0
BBX 9 15 0 -4
BITMAP
1800
3C00
0000
3F80
6700
C300
C300
C300
C300
6700
3F00
0300
0300
0600
3C00
ENDCHAR
STARTCHAR Gbreve
ENCODING 286
SWIDTH 500 0
DWIDTH 10 0
BBX 9 14 0 0
BITMAP
3300
1E00
0000
1F80
7380
6180
C000
C000
C780
C180
C180
6180
7380
1F80
ENDCHAR
STARTCHAR gbreve
ENCODING 287
SWIDTH 500 0
DWIDTH 10 0
BBX 9 15 0 -4
BITMAP
6600
3C00
0000
3F80
6700
C300
C300
C300
C300
6700
3F00
0300
0300
0600
3C00
ENDCHAR
STARTCHAR Gdotaccent
ENCODING 288
SWIDTH 500 0
DWIDTH 10 0
BBX 9 13 0 0
BITMAP
1C00
0000
1F80
7380
6180
C000
C000
C780
C180
C180
6180
7380
1F80
ENDCHAR
STARTCHAR gdotaccent
ENCODING 289
SWIDTH 500 0
DWIDTH 10 0
BBX 9 14 0 -4
BITMAP
3800
0000
3F80
6700
C300
C300
C300
C300
6700
3F00
0300
0300
0600
3C00
ENDCHAR
STARTCHAR Gcommaaccent
ENCODING 290
SWIDTH 500 0
DWIDTH 10 0
BBX 9 15 0 -4
BITMAP
1F80
7380
6180
C000
C000
C780
C180
C180
6180
7380
1F80
0000
0C00
0C00
1800
ENDCHAR
STARTCHAR gcommaaccent
ENCODING 291
SWIDTH 500 0
DWIDTH 10 0
BBX 9 16 0 -4
BITMAP
0C00
1800
1800
0000
3F80
6700
C300
C300
C300
C300
6700
3F00
0300
0300
0600
3C00
ENDCHAR
STARTCHAR Hcircumflex
ENCODING 292
SWIDTH 550 0
DWIDTH 11 0
BBX 10 14 0 0
BITMAP
1E00
0C00
0000
F3C0
6180
6180
6180
6180
7F80
6180
6180
6180
6180
F3C0
ENDCHAR
STARTCHAR hcircumflex
ENCODING 293
SWIDTH 500 0
DWIDTH 10 0
BBX 9 14 0 0
BITMAP
3C00
1800
E000
6000
6000
6000
7C00
7600
6300
6300
6300
6300
6300
F780
ENDCHAR
STARTCHAR Hbar
ENCODING 294
SWIDTH 550 0
DWIDTH 11 0
BBX 10 11 0 0
BITMAP
F3C0
6180
FFC0
6180
6180
7F80
6180
6180
6180
6180
F3C0
ENDCHAR
STARTCHAR hbar
ENCODING 295
SWIDTH 500 0
DWIDTH 10 0
BBX 9 12 0 0
BITMAP
E000
6000
F000
6000
7C00
7600
6300
6300
6300
6300
6300
F780
ENDCHAR
STARTCHAR Itilde
ENCODING 296
SWIDTH 250 0
DWIDTH 5 0
BBX 6 14 -1 0
BITMAP
7C
F8
00
78
30
30
30
30
30
30
30
30
30
78
ENDCHAR
STARTCHAR itilde
ENCODING 297
SWIDTH 250 0
DWIDTH 5 0
BBX 6 12 -1 0
BITMAP
7C
F8
00
00
70
30
30
30
30
30
30
78
ENDCHAR
STARTCHAR Imacron
ENCODING 298
SWIDTH 250 0
DWIDTH 5 0
BBX 6 13 -1 0
BITMAP
FC
00
78
30
30
30
30
30
30
30
30
30
78
ENDCHAR
STARTCHAR imacron
ENCODING 299
SWIDTH 250 0
DWIDTH 5 0
BBX 6 11 -1 0
BITMAP
FC
00
00
70
30
30
30
30
30
30
78
ENDCHAR
STARTCHAR Ibreve
ENCODING 300
SWIDTH 250 0
DWIDTH 5 0
BBX 6 14 -1 0
BITMAP
CC
78
00
78
30
30
30
30
30
30
30
30
30
78
ENDCHAR
STARTCHAR ibreve
ENCODING 301
SWIDTH 250 0
DWIDTH 5 0
BBX 6 12 -1 0
BITMAP
CC
78
00
00
70
30
30
30
30
30
30
78
ENDCHAR
STARTCHAR Iogonek
ENCODING 302
SWIDTH 250 0
DWIDTH 5 0
BBX 4 15 0 -4
BITMAP
F0
60
60
60
60
60
60
60
60
60
F0
60
C0
F0
60
ENDCHAR
STARTCHAR iogonek
ENCODING 303
SWIDTH 250 0
DWIDTH 5 0
BBX 4 16 0 -4
BITMAP
60
60
00
00
E0
60
60
60
60
60
60
F0
60
C0
F0
60
ENDCHAR
STARTCHAR Idotaccent
ENCODING 304
SWIDTH 250 0
DWIDTH 5 0
BBX 4 13 0 0
BITMAP
E0
00
F0
60
60
60
60
60
60
60
60
60
F0
ENDCHAR
STARTCHAR dotlessi
ENCODING 305
SWIDTH 250 0
DWIDTH 5 0
BBX 4 8 0 0
BITMAP
E0
60
60
60
60
60
60
F0
ENDCHAR
STARTCHAR IJ
ENCODING 306
SWIDTH 550 0
DWIDTH 11 0
BBX 10 11 0 0
BITMAP
F3C0
6180
6180
6180
6180
6180
6180
6180
6180
6300
FE00
ENDCHAR
STARTCHAR ij
ENCODING 307
SWIDTH 400 0
DWIDTH 8 0
BBX 7 16 0 -4
BITMAP
66
66
00
00
EE
66
66
66
66
66
66
F6
06
06
0C
38
ENDCHAR
STARTCHAR Jcircumflex
ENCODING 308
SWIDTH 500 0
DWIDTH 10 0
BBX 9 14 0 0
BITMAP
0300
0780
0000
0780
0300
0300
0300
0300
0300
0300
0300
C600
EE00
3800
ENDCHAR
STARTCHAR jcircumflex
ENCODING 309
SWIDTH 200 0
DWIDTH 4 0
BBX 6 16 -2 -4
BITMAP
18
3C
00
00
38
18
18
18
18
18
18
18
18
18
30
E0
ENDCHAR
STARTCHAR Kcommaaccent
ENCODING 310
SWIDTH 500 0
DWIDTH 10 0
BBX 9 15 0 -4
BITMAP
F780
6300
6600
6C00
7800
7C00
6600
6600
6300
6300
F780
0000
1800
1800
3000
ENDCHAR
STARTCHAR kcommaaccent
ENCODING 311
SWIDTH 500 0
DWIDTH 10 0
BBX 9 16 0 -4
BITMAP
E000
6000
6000
6000
6F00
6600
6C00
7800
7C00
6600
6300
F780
0000
1800
1800
3000
ENDCHAR
STARTCHAR kgreenlandic
ENCODING 312
SWIDTH 500 0
DWIDTH 10 0
BBX 9 8 0 0
BITMAP
EF00
6600
6C00
7800
7C00
6600
6300
F780
ENDCHAR
STARTCHAR Lacute
ENCODING 313
SWIDTH 500 0
DWIDTH 10 0
BBX 9 14 0 0
BITMAP
3000
6000
0000
F000
6000
6000
6000
6000
6000
6000
6000
6000
6180
FF80
ENDCHAR
STARTCHAR lacute
ENCODING 314
SWIDTH 250 0
DWIDTH 5 0
BBX 4 15 0 0
BITMAP
30
60
00
E0
60
60
60
60
60
60
60
60
60
60
F0
ENDCHAR
STARTCHAR Lcommaaccent
ENCODING 315
SWIDTH 500 0
DWIDTH 10 0
BBX 9 15 0 -4
BITMAP
F000
6000
6000
6000
6000
6000
6000
6000
6000
6180
FF80
0000
1800
1800
3000
ENDCHAR
STARTCHAR lcommaaccent
ENCODING 316
SWIDTH 250 0
DWIDTH 5 0
BBX 4 16 0 -4
BITMAP
E0
60
60
60
60
60
60
60
60
60
60
F0
00
60
60
C0
ENDCHAR
STARTCHAR Lcaron
ENCODING 317
SWIDTH 500 0
DWIDTH 10 0
BBX 9 14 0 0
BITMAP
F000
6000
0000
F000
6000
6000
6000
6000
6000
6000
6000
6000
6180
FF80
ENDCHAR
STARTCHAR lcaron
ENCODING 318
SWIDTH 250 0
DWIDTH 5 0
BBX 6 12 0 0
BITMAP
FC
7C
6C
78
60
60
60
60
60
60
60
F0
ENDCHAR
STARTCHAR Ldot
ENCODING 319
SWIDTH 500 0
DWIDTH 10 0
BBX 9 11 0 0
BITMAP
F000
6000
6000
6000
6000
7C00
6000
6000
6000
6180
FF80
ENDCHAR
STARTCHAR ldot
ENCODING 320
SWIDTH 250 0
DWIDTH 5 0
BBX 6 12 0 0
BITMAP
E0
60
60
60
60
60
7C
60
60
60
60
F0
ENDCHAR
STARTCHAR Lslash
ENCODING 321
SWIDTH 500 0
DWIDTH 10 0
BBX 9 11 0 0
BITMAP
F000
6000
6000
6000
7000
E000
6000
6000
6000
6180
FF80
ENDCHAR
STARTCHAR lslash
ENCODING 322
SWIDTH 250 0
DWIDTH 5 0
BBX 4 12 0 0
BITMAP
E0
60
60
60
60
70
E0
60
60
60
60
F0
ENDCHAR
STARTCHAR Nacute
ENCODING 323
SWIDTH 550 0
DWIDTH 11 0
BBX 10 14 0 0
BITMAP
0600
0C00
0000
E3C0
7180
7180
7980
7980
6D80
6D80
6780
6780
6380
F180
ENDCHAR
STARTCHAR nacute
ENCODING 324
SWIDTH 500 0
DWIDTH 10 0
BBX 9 11 0 0
BITMAP
0C00
1800
0000
FC00
7600
6300
6300
6300
6300
6300
F780
ENDCHAR
STARTCHAR Ncommaaccent
ENCODING 325
SWIDTH 550 0
DWIDTH 11 0
BBX 10 15 0 -4
BITMAP
E3C0
7180
7180
7980
7980
6D80
6D80
6780
6780
6380
F180
0000
0C00
0C00
1800
ENDCHAR
STARTCHAR ncommaaccent
ENCODING 326
SWIDTH 500 0
DWIDTH 10 0
BBX 9 12 0 -4
BITMAP
FC00
7600
6300
6300
6300
6300
6300
F780
0000
0C00
0C00
1800
ENDCHAR
STARTCHAR Ncaron
ENCODING 327
SWIDTH 550 0
DWIDTH 11 0
BBX 10 14 0 0
BITMAP
1E00
0C00
0000
E3C0
7180
7180
7980
7980
6D80
6D80
6780
6780
6380
F180
ENDCHAR
STARTCHAR ncaron
ENCODING 328
SWIDTH 500 0
DWIDTH 10 0
BBX 9 11 0 0
BITMAP
3600
1C00
0000
FC00
7600
6300
6300
6300
6300
6300
F780
ENDCHAR
STARTCHAR napostrophe
ENCODING 329
SWIDTH 500 0
DWIDTH 10 0
BBX 11 13 -2 0
BITMAP
E000
E000
6000
C000
0000
3F00
1D80
18C0
18C0
18C0
18C0
18C0
3DE0
ENDCHAR
STARTCHAR Eng
ENCODING 330
SWIDTH 550 0
DWIDTH 11 0
BBX 10 15 0 -4
BITMAP
E3C0
7180
7180
7980
7980
6D80
6D80
6780
6780
6380
F180
0180
0180
0300
1E00
ENDCHAR
STARTCHAR eng
ENCODING 331
SWIDTH 500 0
DWIDTH 10 0
BBX 8 12 0 -4
BITMAP
FC
76
63
63
63
63
63
F3
03
03
06
3C
ENDCHAR
STARTCHAR Omacron
ENCODING 332
SWIDTH 550 0
DWIDTH 11 0
BBX 10 13 0 0
BITMAP
3F00
0000
1E00
7380
6180
C0C0
C0C0
C0C0
C0C0
C0C0
6180
7380
1E00
ENDCHAR
STARTCHAR omacron
ENCODING 333
SWIDTH 450 0
DWIDTH 9 0
BBX 8 10 0 0
BITMAP
7E
00
3C
66
C3
C3
C3
C3
66
3C
ENDCHAR
STARTCHAR Obreve
ENCODING 334
SWIDTH 550 0
DWIDTH 11 0
BBX 10 14 0 0
BITMAP
3300
1E00
0000
1E00
7380
6180
C0C0
C0C0
C0C0
C0C0
C0C0
6180
7380
1E00
ENDCHAR
STARTCHAR obreve
ENCODING 335
SWIDTH 450 0
DWIDTH 9 0
BBX 8 11 0 0
BITMAP
66
3C
00
3C
66
C3
C3
C3
C3
66
3C
ENDCHAR
STARTCHAR Ohungarumlaut
ENCODING 336
SWIDTH 550 0
DWIDTH 11 0
BBX 10 14 0 0
BITMAP
0F00
1E00
0000
1E00
7380
6180
C0C0
C0C0
C0C0
C0C0
C0C0
6180
7380
1E00
ENDCHAR
STARTCHAR ohungarumlaut
ENCODING 337
SWIDTH 450 0
DWIDTH 9 0
BBX 8 11 0 0
BITMAP
1E
3C
00
3C
66
C3
C3
C3
C3
66
3C
ENDCHAR
STARTCHAR OE
ENCODING 338
SWIDTH 700 0
DWIDTH 14 0
BBX 13 11 0 0
BITMAP
1FF8
7618
6600
C600
C660
C7E0
C660
C600
6600
7618
1FF8
ENDCHAR
STARTCHAR oe
ENCODING 339
SWIDTH 750 0
DWIDTH 15 0
BBX 14 8 0 0
BITMAP
3CF0
6798
C30C
C3FC
C300
C300
6798
3CF0
ENDCHAR
STARTCHAR Racute
ENCODING 340
SWIDTH 500 0
DWIDTH 10 0
BBX 9 14 0 0
BITMAP
0C00
1800
0000
FE00
6300
6180
6180
6300
7E00
6C00
6600
6300
6300
F180
ENDCHAR
STARTCHAR racute
ENCODING 341
SWIDTH 450 0
DWIDTH 9 0
BBX 8 11 0 0
BITMAP
0C
18
00
FE
73
60
60
60
60
60
F0
ENDCHAR
STARTCHAR Rcommaaccent
ENCODING 342
SWIDTH 500 0
DWIDTH 10 0
BBX 9 15 0 -4
BITMAP
FE00
6300
6180
6180
6300
7E00
6C00
6600
6300
6300
F180
0000
0C00
0C00
1800
ENDCHAR
STARTCHAR rcommaaccent
ENCODING 343
SWIDTH 450 0
DWIDTH 9 0
BBX 8 12 0 -4
BITMAP
FE
73
60
60
60
60
60
F0
00
18
18
30
ENDCHAR
STARTCHAR Rcaron
ENCODING 344
SWIDTH 500 0
DWIDTH 10 0
BBX 9 14 0 0
BITMAP
3C00
1800
0000
FE00
6300
6180
6180
6300
7E00
6C00
6600
6300
6300
F180
ENDCHAR
STARTCHAR rcaron
ENCODING 345
SWIDTH 450 0
DWIDTH 9 0
BBX 8 11 0 0
BITMAP
3C
18
00
FE
73
60
60
60
60
60
F0
ENDCHAR
STARTCHAR Sacute
ENCODING 346
SWIDTH 450 0
DWIDTH 9 0
BBX 8 14 0 0
BITMAP
0C
18
00
3F
67
C3
C0
60
3C
06
03
C3
E6
FC
ENDCHAR
STARTCHAR sacute
ENCODING 347
SWIDTH 400 0
DWIDTH 8 0
BBX 7 11 0 0
BITMAP
18
30
00
7E
CE
C6
70
1C
C6
E6
FC
ENDCHAR
STARTCHAR Scircumflex
ENCODING 348
SWIDTH 450 0
DWIDTH 9 0
BBX 8 14 0 0
BITMAP
18
3C
00
3F
67
C3
C0
60
3C
06
03
C3
E6
FC
ENDCHAR
STARTCHAR scircumflex
ENCODING 349
SWIDTH 400 0
DWIDTH 8 0
BBX 7 11 0 0
BITMAP
38
6C
00
7E
CE
C6
70
1C
C6
E6
FC
ENDCHAR
STARTCHAR Scedilla
ENCODING 350
SWIDTH 450 0
DWIDTH 9 0
BBX 8 15 0 -4
BITMAP
3F
67
C3
C0
60
3C
06
03
C3
E6
FC
18
0C
3C
18
ENDCHAR
STARTCHAR scedilla
ENCODING 351
SWIDTH 400 0
DWIDTH 8 0
BBX 7 12 0 -4
BITMAP
7E
CE
C6
70
1C
C6
E6
FC
18
0C
3C
18
ENDCHAR
STARTCHAR Scaron
ENCODING 352
SWIDTH 450 0
DWIDTH 9 0
BBX 8 14 0 0
BITMAP
3C
18
00
3F
67
C3
C0
60
3C
06
03
C3
E6
FC
ENDCHAR
STARTCHAR scaron
ENCODING 353
SWIDTH 400 0
DWIDTH 8 0
BBX 7 11 0 0
BITMAP
6C
38
00
7E
CE
C6
70
1C
C6
E6
FC
ENDCHAR
STARTCHAR Tcommaaccent
ENCODING 354
SWIDTH 450 0
DWIDTH 9 0
BBX 8 15 0 -4
BITMAP
FF
DB
18
18
18
18
18
18
18
18
3C
18
0C
3C
18
ENDCHAR
STARTCHAR tcommaaccent
ENCODING 355
SWIDTH 250 0
DWIDTH 5 0
BBX 5 16 0 -4
BITMAP
60
60
60
60
F0
60
60
60
60
60
60
38
30
18
78
30
ENDCHAR
STARTCHAR Tcaron
ENCODING 356
SWIDTH 450 0
DWIDTH 9 0
BBX 8 14 0 0
BITMAP
3C
18
00
FF
DB
18
18
18
18
18
18
18
18
3C
ENDCHAR
STARTCHAR tcaron
ENCODING 357
SWIDTH 250 0
DWIDTH 5 0
BBX 6 12 0 0
BITMAP
7C
7C
6C
78
F0
60
60
60
60
60
60
38
ENDCHAR
STARTCHAR Tbar
ENCODING 358
SWIDTH 450 0
DWIDTH 9 0
BBX 8 11 0 0
BITMAP
FF
DB
18
18
18
7E
18
18
18
18
3C
ENDCHAR
STARTCHAR tbar
ENCODING 359
SWIDTH 250 0
DWIDTH 5 0
BBX 5 12 0 0
BITMAP
60
60
60
60
F0
60
60
F0
60
60
60
38
ENDCHAR
STARTCHAR Utilde
ENCODING 360
SWIDTH 600 0
DWIDTH 12 0
BBX 11 14 0 0
BITMAP
1D80
3700
0000
F1E0
60C0
60C0
60C0
60C0
60C0
60C0
60C0
3180
3B80
0E00
ENDCHAR
STARTCHAR utilde
ENCODING 361
SWIDTH 500 0
DWIDTH 10 0
BBX 9 11 0 0
BITMAP
3B00
6E00
0000
E700
6300
6300
6300
6300
6300
3700
1F80
ENDCHAR
STARTCHAR Umacron
ENCODING 362
SWIDTH 600 0
DWIDTH 12 0
BBX 11 13 0 0
BITMAP
3F80
0000
F1E0
60C0
60C0
60C0
60C0
60C0
60C0
60C0
3180
3B80
0E00
ENDCHAR
STARTCHAR umacron
ENCODING 363
SWIDTH 500 0
DWIDTH 10 0
BBX 9 10 0 0
BITMAP
7E00
0000
E700
6300
6300
6300
6300
6300
3700
1F80
ENDCHAR
STARTCHAR Ubreve
ENCODING 364
SWIDTH 600 0
DWIDTH 12 0
BBX 11 14 0 0
BITMAP
3180
1F00
0000
F1E0
60C0
60C0
60C0
60C0
60C0
60C0
60C0
3180
3B80
0E00
ENDCHAR
STARTCHAR ubreve
ENCODING 365
SWIDTH 500 0
DWIDTH 10 0
BBX 9 11 0 0
BITMAP
6600
3C00
0000
E700
6300
6300
6300
6300
6300
3700
1F80
ENDCHAR
STARTCHAR Uring
ENCODING 366
SWIDTH 600 0
DWIDTH 12 0
BBX 11 14 0 0
BITMAP
0E00
1B00
0E00
F1E0
60C0
60C0
60C0
60C0
60C0
60C0
60C0
3180
3B80
0E00
ENDCHAR
STARTCHAR uring
ENCODING 367
SWIDTH 500 0
DWIDTH 10 0
BBX 9 12 0 0
BITMAP
3C00
6600
3C00
0000
E700
6300
6300
6300
6300
6300
3700
1F80
ENDCHAR
STARTCHAR Uhungarumlaut
ENCODING 368
SWIDTH 600 0
DWIDTH 12 0
BBX 11 14 0 0
BITMAP
0F00
1E00
0000
F1E0
60C0
60C0
60C0
60C0
60C0
60C0
60C0
3180
3B80
0E00
ENDCHAR
STARTCHAR uhungarumlaut
ENCODING 369
SWIDTH 500 0
DWIDTH 10 0
BBX 9 11 0 0
BITMAP
1E00
3C00
0000
E700
6300
6300
6300
6300
6300
3700
1F80
ENDCHAR
STARTCHAR Uogonek
ENCODING 370
SWIDTH 600 0
DWIDTH 12 0
BBX 11 15 0 -4
BITMAP
F1E0
60C0
60C0
60C0
60C0
60C0
60C0
60C0
3180
3B80
0E00
0600
0C00
0F00
0600
ENDCHAR
STARTCHAR uogonek
ENCODING 371
SWIDTH 500 0
DWIDTH 10 0
BBX 9 12 0 -4
BITMAP
E700
6300
6300
6300
6300
6300
3700
1F80
0C00
1800
1E00
0C00
ENDCHAR
STARTCHAR Wcircumflex
ENCODING 372
SWIDTH 750 0
DWIDTH 15 0
BBX 14 14 0 0
BITMAP
0300
0780
0000
F03C
6018
6018
3330
3330
3330
1FE0
1FE0
1FE0
0CC0
0CC0
ENDCHAR
STARTCHAR wcircumflex
ENCODING 373
SWIDTH 550 0
DWIDTH 11 0
BBX 10 11 0 0
BITMAP
0C00
1E00
0000
F3C0
6180
6180
3F00
3F00
3F00
1E00
1E00
ENDCHAR
STARTCHAR Ycircumflex
ENCODING 374
SWIDTH 550 0
DWIDTH 11 0
BBX 10 14 0 0
BITMAP
0C00
1E00
0000
F3C0
6180
3300
3300
1E00
0C00
0C00
0C00
0C00
0C00
1E00
ENDCHAR
STARTCHAR ycircumflex
ENCODING 375
SWIDTH 450 0
DWIDTH 9 0
BBX 8 15 0 -4
BITMAP
18
3C
00
FF
66
66
3C
3C
3C
18
18
30
30
60
C0
ENDCHAR
STARTCHAR Ydieresis
ENCODING 376
SWIDTH 550 0
DWIDTH 11 0
BBX 10 13 0 0
BITMAP
3F00
0000
F3C0
6180
3300
3300
1E00
0C00
0C00
0C00
0C00
0C00
1E00
ENDCHAR
STARTCHAR Zacute
ENCODING 377
SWIDTH 450 0
DWIDTH 9 0
BBX 8 14 0 0
BITMAP
0C
18
00
FF
C3
06
0C
0C
18
30
30
60
C3
FF
ENDCHAR
STARTCHAR zacute
ENCODING 378
SWIDTH 400 0
DWIDTH 8 0
BBX 7 11 0 0
BITMAP
18
30
00
FE
C6
0C
18
30
60
C6
FE
ENDCHAR
STARTCHAR Zdotaccent
ENCODING 379
SWIDTH 450 0
DWIDTH 9 0
BBX 8 13 0 0
BITMAP
1C
00
FF
C3
06
0C
0C
18
30
30
60
C3
FF
ENDCHAR
STARTCHAR zdotaccent
ENCODING 380
SWIDTH 400 0
DWIDTH 8 0
BBX 7 10 0 0
BITMAP
38
00
FE
C6
0C
18
30
60
C6
FE
ENDCHAR
STARTCHAR Zcaron
ENCODING 381
SWIDTH 450 0
DWIDTH 9 0
BBX 8 14 0 0
BITMAP
3C
18
00
FF
C3
06
0C
0C
18
30
30
60
C3
FF
ENDCHAR
STARTCHAR zcaron
ENCODING 382
SWIDTH 400 0
DWIDTH 8 0
BBX 7 11 0 0
BITMAP
6C
38
00
FE
C6
0C
18
30
60
C6
FE
ENDCHAR
STARTCHAR longs
ENCODING 383
SWIDTH 250 0
DWIDTH 5 0
BBX 6 12 0 0
BITMAP
1C
30
60
60
E0
60
60
60
60
60
60
F0
ENDCHAR
STARTCHAR florin
ENCODING 402
SWIDTH 250 0
DWIDTH 5 0
BBX 9 16 -3 -4
BITMAP
0380
0600
0C00
0C00
1E00
0C00
0C00
0C00
0C00
0C00
0C00
0C00
1800
1800
3000
E000
ENDCHAR
STARTCHAR uni0237
ENCODING 567
SWIDTH 200 0
DWIDTH 4 0
BBX 5 12 -2 -4
BITMAP
38
18
18
18
18
18
18
18
18
18
30
E0
ENDCHAR
STARTCHAR uni0250
ENCODING 592
SWIDTH 450 0
DWIDTH 9 0
BBX 8 8 0 0
BITMAP
FE
73
63
66
7C
60
66
3C
ENDCHAR
STARTCHAR uni0251
ENCODING 593
SWIDTH 450 0
DWIDTH 9 0
BBX 8 8 0 0
BITMAP
3E
66
C6
C6
C6
C6
CE
7F
ENDCHAR
STARTCHAR uni0252
ENCODING 594
SWIDTH 450 0
DWIDTH 9 0
BBX 8 8 0 0
BITMAP
FE
73
63
63
63
63
66
7C
ENDCHAR
STARTCHAR uni0253
ENCODING 595
SWIDTH 500 0
DWIDTH 10 0
BBX 9 12 0 0
BITMAP
1E00
3000
6000
6000
7E00
7300
6180
6180
6180
6180
7300
FE00
ENDCHAR
STARTCHAR uni0254
ENCODING 596
SWIDTH 450 0
DWIDTH 9 0
BBX 8 8 0 0
BITMAP
FC
E6
C3
03
03
C3
66
3C
ENDCHAR
STARTCHAR uni0255
ENCODING 597
SWIDTH 450 0
DWIDTH 9 0
BBX 8 10 0 -2
BITMAP
3F
67
C3
C0
C0
C6
6F
3E
18
30
ENDCHAR
STARTCHAR uni0256
ENCODING 598
SWIDTH 500 0
DWIDTH 10 0
BBX 11 16 0 -4
BITMAP
0700
0300
0300
0300
3F00
6700
C300
C300
C300
C300
6700
3F00
0300
0300
0180
00E0
ENDCHAR
STARTCHAR uni0257
ENCODING 599
SWIDTH 500 0
DWIDTH 10 0
BBX 11 12 0 0
BITMAP
00E0
0180
0300
0300
3F00
6700
C300
C300
C300
C300
6700
3F80
ENDCHAR
STARTCHAR uni0258
ENCODING 600
SWIDTH 450 0
DWIDTH 9 0
BBX 8 8 0 0
BITMAP
3C
66
C3
FF
03
03
66
3C
ENDCHAR
STARTCHAR uni0259
ENCODING 601
SWIDTH 450 0
DWIDTH 9 0
BBX 8 8 0 0
BITMAP
3C
66
03
03
FF
C3
66
3C
ENDCHAR
STARTCHAR uni025A
ENCODING 602
SWIDTH 600 0
DWIDTH 12 0
BBX 11 8 0 0
BITMAP
3C00
6600
0300
03C0
FFC0
C3C0
6660
3C00
ENDCHAR
STARTCHAR uni025B
ENCODING 603
SWIDTH 400 0
DWIDTH 8 0
BBX 7 8 0 0
BITMAP
7C
C6
C0
7C
C0
C0
C6
7C
ENDCHAR
STARTCHAR uni025C
ENCODING 604
SWIDTH 400 0
DWIDTH 8 0
BBX 7 8 0 0
BITMAP
7C
C6
06
7C
06
06
C6
7C
ENDCHAR
STARTCHAR uni025D
ENCODING 605
SWIDTH 550 0
DWIDTH 11 0
BBX 10 8 0 0
BITMAP
7C00
C780
0780
7D80
06C0
0600
C600
7C00
ENDCHAR
STARTCHAR uni025E
ENCODING 606
SWIDTH 500 0
DWIDTH 10 0
BBX 9 8 0 0
BITMAP
1F00
3180
6180
DF00
C180
6180
3180
1F00
ENDCHAR
STARTCHAR uni025F
ENCODING 607
SWIDTH 250 0
DWIDTH 5 0
BBX 6 12 -2 -4
BITMAP
3C
18
18
18
18
18
18
3C
18
18
30
E0
ENDCHAR
STARTCHAR uni0260
ENCODING 608
SWIDTH 500 0
DWIDTH 10 0
BBX 11 16 0 -4
BITMAP
00E0
0180
0300
0300
3F00
6700
C300
C300
C300
C300
6700
3F00
0300
0300
0600
3C00
ENDCHAR
STARTCHAR uni0261
ENCODING 609
SWIDTH 500 0
DWIDTH 10 0
BBX 9 12 0 -4
BITMAP
1F80
3700
6300
C380
C300
C700
6F00
3B00
3300
6300
6600
3C00
ENDCHAR
STARTCHAR uni0262
ENCODING 610
SWIDTH 450 0
DWIDTH 9 0
BBX 8 8 0 0
BITMAP
3F
67
C0
CF
C3
C3
67
3F
ENDCHAR
STARTCHAR uni0263
ENCODING 611
SWIDTH 450 0
DWIDTH 9 0
BBX 8 10 0 -2
BITMAP
FF
66
66
3C
3C
3C
18
18
3C
18
ENDCHAR
STARTCHAR uni0264
ENCODING 612
SWIDTH 450 0
DWIDTH 9 0
BBX 8 8 0 0
BITMAP
7E
DB
3C
3C
3C
3C
3C
18
ENDCHAR
STARTCHAR uni0265
ENCODING 613
SWIDTH 500 0
DWIDTH 10 0
BBX 9 12 0 -4
BITMAP
F780
6300
6300
6300
6300
6300
3700
1F00
0300
0300
0300
0380
ENDCHAR
STARTCHAR uni0266
ENCODING 614
SWIDTH 500 0
DWIDTH 10 0
BBX 9 12 0 0
BITMAP
1E00
3000
6000
6000
7C00
7600
6300
6300
6300
6300
6300
F780
ENDCHAR
STARTCHAR uni0267
ENCODING 615
SWIDTH 500 0
DWIDTH 10 0
BBX 8 16 0 -4
BITMAP
1E
30
60
60
7C
76
63
63
63
63
63
F3
03
03
06
3C
ENDCHAR
STARTCHAR uni0268
ENCODING 616
SWIDTH 250 0
DWIDTH 5 0
BBX 4 12 0 0
BITMAP
60
60
00
00
E0
60
60
F0
60
60
60
F0
ENDCHAR
STARTCHAR uni0269
ENCODING 617
SWIDTH 250 0
DWIDTH 5 0
BBX 4 8 0 0
BITMAP
E0
60
60
60
60
60
60
70
ENDCHAR
STARTCHAR uni026A
ENCODING 618
SWIDTH 250 0
DWIDTH 5 0
BBX 4 8 0 0
BITMAP
F0
60
60
60
60
60
60
F0
ENDCHAR
STARTCHAR uni026B
ENCODING 619
SWIDTH 250 0
DWIDTH 5 0
BBX 6 12 -1 0
BITMAP
70
30
30
30
30
7C
F8
30
30
30
30
78
ENDCHAR
STARTCHAR uni026C
ENCODING 620
SWIDTH 250 0
DWIDTH 5 0
BBX 5 12 -1 0
BITMAP
70
30
30
30
30
70
F0
78
30
30
30
78
ENDCHAR
STARTCHAR uni026D
ENCODING 621
SWIDTH 250 0
DWIDTH 5 0
BBX 6 16 0 -4
BITMAP
E0
60
60
60
60
60
60
60
60
60
60
60
60
60
30
1C
ENDCHAR
STARTCHAR uni026E
ENCODING 622
SWIDTH 500 0
DWIDTH 10 0
BBX 9 16 0 -4
BITMAP
E000
6000
6000
6000
7F80
6300
6600
6C00
7E00
6300
6180
F180
0180
0180
0300
1E00
ENDCHAR
STARTCHAR uni026F
ENCODING 623
SWIDTH 750 0
DWIDTH 15 0
BBX 14 8 0 0
BITMAP
E738
6318
6318
6318
6318
6318
37B8
1CFC
ENDCHAR
STARTCHAR uni0270
ENCODING 624
SWIDTH 750 0
DWIDTH 15 0
BBX 14 12 0 -4
BITMAP
E738
6318
6318
6318
6318
6318
37B8
1CF8
0018
0018
0018
001C
ENDCHAR
STARTCHAR uni0271
ENCODING 625
SWIDTH 700 0
DWIDTH 14 0
BBX 13 12 0 -4
BITMAP
FCE0
77B0
6318
6318
6318
6318
6318
F798
0018
0018
0030
01E0
ENDCHAR
STARTCHAR uni0272
ENCODING 626
SWIDTH 500 0
DWIDTH 10 0
BBX 11 12 -2 -4
BITMAP
3F00
1D80
18C0
18C0
18C0
18C0
18C0
19E0
1800
1800
3000
E000
ENDCHAR
STARTCHAR uni0273
ENCODING 627
SWIDTH 450 0
DWIDTH 9 0
BBX 11 12 0 -4
BITMAP
FC00
7600
6300
6300
6300
6300
6300
F300
0300
0300
0180
00E0
ENDCHAR
STARTCHAR uni0274
ENCODING 628
SWIDTH 500 0
DWIDTH 10 0
BBX 9 8 0 0
BITMAP
E780
7300
7B00
7B00
6F00
6F00
6700
F300
ENDCHAR
STARTCHAR uni0275
ENCODING 629
SWIDTH 450 0
DWIDTH 9 0
BBX 8 8 0 0
BITMAP
3C
66
C3
FF
C3
C3
66
3C
ENDCHAR
STARTCHAR uni0276
ENCODING 630
SWIDTH 600 0
DWIDTH 12 0
BBX 11 8 0 0
BITMAP
3FE0
6C60
CD80
CF80
CD80
CC00
6C60
3FE0
ENDCHAR
STARTCHAR uni0277
ENCODING 631
SWIDTH 550 0
DWIDTH 11 0
BBX 10 8 0 0
BITMAP
1E00
3300
6180
CCC0
CCC0
CCC0
CCC0
7F80
ENDCHAR
STARTCHAR uni0278
ENCODING 632
SWIDTH 450 0
DWIDTH 9 0
BBX 8 12 0 -2
BITMAP
3C
18
3C
7E
DB
DB
DB
DB
7E
3C
18
3C
ENDCHAR
STARTCHAR uni0279
ENCODING 633
SWIDTH 450 0
DWIDTH 9 0
BBX 8 8 0 0
BITMAP
0F
06
06
06
06
06
CE
7F
ENDCHAR
STARTCHAR uni027A
ENCODING 634
SWIDTH 450 0
DWIDTH 9 0
BBX 8 12 0 0
BITMAP
0F
06
06
06
06
06
06
06
06
06
CE
7F
ENDCHAR
STARTCHAR uni027B
ENCODING 635
SWIDTH 450 0
DWIDTH 9 0
BBX 10 12 0 -4
BITMAP
0F00
0600
0600
0600
0600
0600
CE00
7E00
0600
0600
0300
01C0
ENDCHAR
STARTCHAR uni027C
ENCODING 636
SWIDTH 450 0
DWIDTH 9 0
BBX 8 12 0 -4
BITMAP
FE
73
60
60
60
60
60
60
60
60
60
F0
ENDCHAR
STARTCHAR uni027D
ENCODING 637
SWIDTH 450 0
DWIDTH 9 0
BBX 8 12 0 -4
BITMAP
FE
73
60
60
60
60
60
60
60
60
30
1C
ENDCHAR
STARTCHAR uni027E
ENCODING 638
SWIDTH 450 0
DWIDTH 9 0
BBX 8 8 0 0
BITMAP
1E
33
60
60
60
60
60
F0
ENDCHAR
STARTCHAR uni027F
ENCODING 639
SWIDTH 450 0
DWIDTH 9 0
BBX 8 8 0 0
BITMAP
78
CC
06
06
06
06
06
0F
ENDCHAR
STARTCHAR uni0280
ENCODING 640
SWIDTH 450 0
DWIDTH 9 0
BBX 8 8 0 0
BITMAP
FE
63
63
63
7E
78
6C
F7
ENDCHAR
STARTCHAR uni0281
ENCODING 641
SWIDTH 450 0
DWIDTH 9 0
BBX 8 8 0 0
BITMAP
F7
6C
78
7E
63
63
63
FE
ENDCHAR
STARTCHAR uni0282
ENCODING 642
SWIDTH 400 0
DWIDTH 8 0
BBX 7 12 0 -4
BITMAP
7E
CE
C6
70
1C
C6
E6
FC
C0
C0
60
3C
ENDCHAR
STARTCHAR uni0283
ENCODING 643
SWIDTH 250 0
DWIDTH 5 0
BBX 8 16 -2 -4
BITMAP
07
0C
18
18
18
18
18
18
18
18
18
18
18
18
30
E0
ENDCHAR
STARTCHAR uni0284
ENCODING 644
SWIDTH 250 0
DWIDTH 5 0
BBX 8 16 -2 -4
BITMAP
07
0C
18
18
18
18
18
18
18
18
18
3C
18
18
30
E0
ENDCHAR
STARTCHAR uni0285
ENCODING 645
SWIDTH 350 0
DWIDTH 7 0
BBX 8 12 -2 0
BITMAP
E0
30
18
18
18
18
18
18
18
18
0C
07
ENDCHAR
STARTCHAR uni0286
ENCODING 646
SWIDTH 250 0
DWIDTH 5 0
BBX 9 17 -3 -5
BITMAP
0380
0600
0C00
0C00
0C00
0C00
0C00
0C00
0C00
0C00
0C00
0C00
0C00
7C00
D800
7C00
0600
ENDCHAR
STARTCHAR uni0287
ENCODING 647
SWIDTH 250 0
DWIDTH 5 0
BBX 5 12 -1 -4
BITMAP
E0
30
30
30
30
30
30
78
30
30
30
30
ENDCHAR
STARTCHAR uni0288
ENCODING 648
SWIDTH 250 0
DWIDTH 5 0
BBX 6 16 0 -4
BITMAP
60
60
60
60
F0
60
60
60
60
60
60
60
60
60
30
1C
ENDCHAR
STARTCHAR uni0289
ENCODING 649
SWIDTH 500 0
DWIDTH 10 0
BBX 9 8 0 0
BITMAP
E700
6300
6300
FF80
6300
6300
3700
1F80
ENDCHAR
STARTCHAR uni028A
ENCODING 650
SWIDTH 500 0
DWIDTH 10 0
BBX 9 8 0 0
BITMAP
F780
3600
3600
6300
6300
6300
3600
1C00
ENDCHAR
STARTCHAR uni028B
ENCODING 651
SWIDTH 450 0
DWIDTH 9 0
BBX 8 8 0 0
BITMAP
EC
66
63
63
63
63
36
1C
ENDCHAR
STARTCHAR uni028C
ENCODING 652
SWIDTH 450 0
DWIDTH 9 0
BBX 8 8 0 0
BITMAP
18
18
3C
3C
3C
66
66
FF
ENDCHAR
STARTCHAR uni028D
ENCODING 653
SWIDTH 550 0
DWIDTH 11 0
BBX 10 8 0 0
BITMAP
1E00
1E00
3F00
3F00
3F00
6180
6180
F3C0
ENDCHAR
STARTCHAR uni028E
ENCODING 654
SWIDTH 450 0
DWIDTH 9 0
BBX 8 12 0 0
BITMAP
03
06
0C
0C
18
18
3C
3C
3C
66
66
FF
ENDCHAR
STARTCHAR uni028F
ENCODING 655
SWIDTH 450 0
DWIDTH 9 0
BBX 8 8 0 0
BITMAP
FF
66
3C
3C
18
18
18
3C
ENDCHAR
STARTCHAR uni0290
ENCODING 656
SWIDTH 400 0
DWIDTH 8 0
BBX 10 12 0 -4
BITMAP
FE00
C600
0C00
1800
3000
6000
C600
FE00
0600
0600
0300
01C0
ENDCHAR
STARTCHAR uni0291
ENCODING 657
SWIDTH 400 0
DWIDTH 8 0
BBX 7 10 0 -2
BITMAP
FE
C6
0C
18
30
6C
DE
FC
30
60
ENDCHAR
STARTCHAR uni0292
ENCODING 658
SWIDTH 400 0
DWIDTH 8 0
BBX 7 12 0 -4
BITMAP
FE
C6
0C
18
30
78
0C
06
06
06
CC
78
ENDCHAR
STARTCHAR uni0293
ENCODING 659
SWIDTH 400 0
DWIDTH 8 0
BBX 7 14 0 -6
BITMAP
FE
C6
0C
18
30
78
0C
06
06
66
FC
78
18
0C
ENDCHAR
STARTCHAR uni0294
ENCODING 660
SWIDTH 450 0
DWIDTH 9 0
BBX 8 11 0 0
BITMAP
3C
66
C3
03
06
0C
18
18
18
18
3C
ENDCHAR
STARTCHAR uni0295
ENCODING 661
SWIDTH 450 0
DWIDTH 9 0
BBX 8 11 0 0
BITMAP
3C
66
C3
C0
60
30
18
18
18
18
3C
ENDCHAR
STARTCHAR uni0296
ENCODING 662
SWIDTH 450 0
DWIDTH 9 0
BBX 8 11 0 0
BITMAP
3C
18
18
18
18
0C
06
03
C3
66
3C
ENDCHAR
STARTCHAR uni0297
ENCODING 663
SWIDTH 450 0
DWIDTH 9 0
BBX 8 12 0 -4
BITMAP
3F
67
C3
C0
C0
C0
C0
C0
C0
C3
66
3C
ENDCHAR
STARTCHAR uni0298
ENCODING 664
SWIDTH 450 0
DWIDTH 9 0
BBX 8 8 0 0
BITMAP
3C
66
DB
FF
FF
DB
66
3C
ENDCHAR
STARTCHAR uni0299
ENCODING 665
SWIDTH 450 0
DWIDTH 9 0
BBX 8 8 0 0
BITMAP
FE
63
63
7E
63
63
63
FE
ENDCHAR
STARTCHAR uni029A
ENCODING 666
SWIDTH 500 0
DWIDTH 10 0
BBX 9 8 0 0
BITMAP
7C00
C600
C300
7D80
C180
C300
C600
7C00
ENDCHAR
STARTCHAR uni029B
ENCODING 667
SWIDTH 450 0
DWIDTH 9 0
BBX 11 12 0 0
BITMAP
00E0
0180
0300
0300
3F00
6700
C000
CF00
C300
C300
6700
3F00
ENDCHAR
STARTCHAR uni029C
ENCODING 668
SWIDTH 500 0
DWIDTH 10 0
BBX 9 8 0 0
BITMAP
F780
6300
6300
7F00
6300
6300
6300
F780
ENDCHAR
STARTCHAR uni029D
ENCODING 669
SWIDTH 200 0
DWIDTH 4 0
BBX 7 17 -3 -5
BITMAP
0C
0C
00
00
1C
0C
0C
0C
0C
0C
0C
0C
0C
7C
D8
7C
06
ENDCHAR
STARTCHAR uni029E
ENCODING 670
SWIDTH 500 0
DWIDTH 10 0
BBX 9 12 0 -4
BITMAP
F780
6300
3300
1F00
0F00
1B00
3300
7B00
0300
0300
0300
0380
ENDCHAR
STARTCHAR uni029F
ENCODING 671
SWIDTH 450 0
DWIDTH 9 0
BBX 8 8 0 0
BITMAP
F0
60
60
60
60
60
63
FF
ENDCHAR
STARTCHAR uni02A0
ENCODING 672
SWIDTH 500 0
DWIDTH 10 0
BBX 11 16 0 -4
BITMAP
00E0
0180
0300
0300
3F00
6700
C300
C300
C300
C300
6700
3F00
0300
0300
0300
0780
ENDCHAR
STARTCHAR uni02A1
ENCODING 673
SWIDTH 450 0
DWIDTH 9 0
BBX 8 11 0 0
BITMAP
3C
66
C3
03
06
0C
18
3C
18
18
3C
ENDCHAR
STARTCHAR uni02A2
ENCODING 674
SWIDTH 450 0
DWIDTH 9 0
BBX 8 11 0 0
BITMAP
3C
66
C3
C0
60
30
18
3C
18
18
3C
ENDCHAR
STARTCHAR uni02A3
ENCODING 675
SWIDTH 800 0
DWIDTH 16 0
BBX 15 12 0 0
BITMAP
0700
0300
0300
0300
3FFE
67C6
C30C
C318
C330
C360
67C6
3FFE
ENDCHAR
STARTCHAR uni02A4
ENCODING 676
SWIDTH 800 0
DWIDTH 16 0
BBX 15 16 0 -4
BITMAP
0700
0300
0300
0300
3FFE
67C6
C30C
C318
C330
C378
670C
3F86
0006
0006
00CC
0078
ENDCHAR
STARTCHAR uni02A5
ENCODING 677
SWIDTH 800 0
DWIDTH 16 0
BBX 15 14 0 -2
BITMAP
0700
0300
0300
0300
3FFE
67C6
C30C
C318
C330
C36C
67DE
3FFC
0030
0060
ENDCHAR
STARTCHAR uni02A6
ENCODING 678
SWIDTH 600 0
DWIDTH 12 0
BBX 11 12 0 0
BITMAP
6000
6000
6000
6000
F7E0
6CE0
6C60
6700
61C0
6C60
6E60
3FC0
ENDCHAR
STARTCHAR uni02A7
ENCODING 679
SWIDTH 400 0
DWIDTH 8 0
BBX 9 16 0 -4
BITMAP
6380
6600
6C00
6C00
FC00
6C00
6C00
6C00
6C00
6C00
6C00
3C00
0C00
0C00
1800
7000
ENDCHAR
STARTCHAR uni02A8
ENCODING 680
SWIDTH 650 0
DWIDTH 13 0
BBX 12 14 0 -2
BITMAP
6000
6000
6000
6000
F3F0
6670
6C30
6C00
6C00
6C60
6EF0
3BE0
0180
0300
ENDCHAR
STARTCHAR uni02A9
ENCODING 681
SWIDTH 650 0
DWIDTH 13 0
BBX 12 16 0 -4
BITMAP
1C00
3000
6000
6000
FFC0
6760
6630
6630
6630
6630
6630
FF30
0030
0030
0060
03C0
ENDCHAR
STARTCHAR uni02AA
ENCODING 682
SWIDTH 550 0
DWIDTH 11 0
BBX 10 12 0 0
BITMAP
E000
6000
6000
6000
6FC0
79C0
78C0
6E00
6380
78C0
7CC0
FF80
ENDCHAR
STARTCHAR uni02AB
ENCODING 683
SWIDTH 550 0
DWIDTH 11 0
BBX 10 12 0 0
BITMAP
E000
6000
6000
6000
7FC0
78C0
6180
6300
6600
6C00
78C0
FFC0
ENDCHAR
STARTCHAR uni02AC
ENCODING 684
SWIDTH 550 0
DWIDTH 11 0
BBX 10 11 0 0
BITMAP
F3C0
6D80
3F00
1E00
1E00
0000
F3C0
6D80
3F00
1E00
1E00
ENDCHAR
STARTCHAR uni02AD
ENCODING 685
SWIDTH 550 0
DWIDTH 11 0
BBX 10 11 0 0
BITMAP
FFC0
C0C0
C0C0
C0C0
C0C0
0000
FFC0
C0C0
C0C0
C0C0
C0C0
ENDCHAR
STARTCHAR uni02AE
ENCODING 686
SWIDTH 500 0
DWIDTH 10 0
BBX 10 12 -1 -4
BITMAP
E3C0
3180
3180
3180
3180
3180
1B80
0F80
0180
0180
0180
01C0
ENDCHAR
STARTCHAR uni02AF
ENCODING 687
SWIDTH 500 0
DWIDTH 10 0
BBX 12 12 -1 -4
BITMAP
E3C0
3180
3180
3180
3180
3180
1B80
0F80
0180
0180
00C0
0070
ENDCHAR
STARTCHAR circumflex
ENCODING 710
SWIDTH 350 0
DWIDTH 7 0
BBX 6 3 0 9
BITMAP
30
78
CC
ENDCHAR
STARTCHAR caron
ENCODING 711
SWIDTH 350 0
DWIDTH 7 0
BBX 6 3 0 9
BITMAP
CC
78
30
ENDCHAR
STARTCHAR uni02C8
ENCODING 712
SWIDTH 250 0
DWIDTH 5 0
BBX 2 3 1 9
BITMAP
C0
C0
C0
ENDCHAR
STARTCHAR macron
ENCODING 713
SWIDTH 350 0
DWIDTH 7 0
BBX 6 1 0 11
BITMAP
FC
ENDCHAR
STARTCHAR uni02CA
ENCODING 714
SWIDTH 200 0
DWIDTH 4 0
BBX 3 2 0 10
BITMAP
60
C0
ENDCHAR
STARTCHAR uni02CB
ENCODING 715
SWIDTH 200 0
DWIDTH 4 0
BBX 3 2 0 10
BITMAP
C0
60
ENDCHAR
STARTCHAR uni02D2
ENCODING 722
SWIDTH 200 0
DWIDTH 4 0
BBX 3 4 0 8
BITMAP
C0
60
60
C0
ENDCHAR
STARTCHAR uni02D3
ENCODING 723
SWIDTH 200 0
DWIDTH 4 0
BBX 3 4 0 8
BITMAP
60
C0
C0
60
ENDCHAR
STARTCHAR uni02D4
ENCODING 724
SWIDTH 250 0
DWIDTH 5 0
BBX 4 3 0 9
BITMAP
60
60
F0
ENDCHAR
STARTCHAR uni02D5
ENCODING 725
SWIDTH 250 0
DWIDTH 5 0
BBX 4 3 0 9
BITMAP
F0
60
60
ENDCHAR
STARTCHAR uni02D6
ENCODING 726
SWIDTH 250 0
DWIDTH 5 0
BBX 4 3 0 9
BITMAP
60
F0
60
ENDCHAR
STARTCHAR uni02D7
ENCODING 727
SWIDTH 250 0
DWIDTH 5 0
BBX 4 1 0 10
BITMAP
F0
ENDCHAR
STARTCHAR breve
ENCODING 728
SWIDTH 350 0
DWIDTH 7 0
BBX 6 2 0 10
BITMAP
CC
78
ENDCHAR
STARTCHAR dotaccent
ENCODING 729
SWIDTH 300 0
DWIDTH 6 0
BBX 3 1 1 11
BITMAP
E0
ENDCHAR
STARTCHAR ring
ENCODING 730
SWIDTH 350 0
DWIDTH 7 0
BBX 6 3 0 9
BITMAP
78
CC
78
ENDCHAR
STARTCHAR ogonek
ENCODING 731
SWIDTH 350 0
DWIDTH 7 0
BBX 4 4 1 -4
BITMAP
60
C0
F0
60
ENDCHAR
STARTCHAR tilde
ENCODING 732
SWIDTH 400 0
DWIDTH 8 0
BBX 7 2 0 10
BITMAP
76
DC
ENDCHAR
STARTCHAR hungarumlaut
ENCODING 733
SWIDTH 400 0
DWIDTH 8 0
BBX 7 3 0 9
BITMAP
36
6C
D8
ENDCHAR
STARTCHAR uni0300
ENCODING 768
SWIDTH 0 0
DWIDTH 0 0
BBX 3 2 -7 10
BITMAP
C0
60
ENDCHAR
STARTCHAR uni0301
ENCODING 769
SWIDTH 0 0
DWIDTH 0 0
BBX 3 2 -6 10
BITMAP
60
C0
ENDCHAR
STARTCHAR uni0302
ENCODING 770
SWIDTH 0 0
DWIDTH 0 0
BBX 4 2 -7 10
BITMAP
60
F0
ENDCHAR
STARTCHAR uni0303
ENCODING 771
SWIDTH 0 0
DWIDTH 0 0
BBX 6 2 -8 10
BITMAP
7C
F8
ENDCHAR
STARTCHAR uni0304
ENCODING 772
SWIDTH 0 0
DWIDTH 0 0
BBX 6 1 -8 11
BITMAP
FC
ENDCHAR
STARTCHAR uni0305
ENCODING 773
SWIDTH 0 0
DWIDTH 0 0
BBX 10 1 -10 11
BITMAP
FFC0
ENDCHAR
STARTCHAR uni0306
ENCODING 774
SWIDTH 0 0
DWIDTH 0 0
BBX 6 2 -8 10
BITMAP
CC
78
ENDCHAR
STARTCHAR uni0307
ENCODING 775
SWIDTH 0 0
DWIDTH 0 0
BBX 3 1 -7 11
BITMAP
E0
ENDCHAR
STARTCHAR uni0308
ENCODING 776
SWIDTH 0 0
DWIDTH 0 0
BBX 6 1 -8 11
BITMAP
FC
ENDCHAR
STARTCHAR uni030A
ENCODING 778
SWIDTH 0 0
DWIDTH 0 0
BBX 6 3 -8 10
BITMAP
78
CC
78
ENDCHAR
STARTCHAR uni030B
ENCODING 779
SWIDTH 0 0
DWIDTH 0 0
BBX 5 2 -7 10
BITMAP
78
F0
ENDCHAR
STARTCHAR uni030C
ENCODING 780
SWIDTH 0 0
DWIDTH 0 0
BBX 4 2 -7 10
BITMAP
F0
60
ENDCHAR
STARTCHAR uni0370
ENCODING 880
SWIDTH 450 0
DWIDTH 9 0
BBX 8 11 0 0
BITMAP
F0
60
60
60
60
7F
60
60
60
60
F0
ENDCHAR
STARTCHAR uni0371
ENCODING 881
SWIDTH 400 0
DWIDTH 8 0
BBX 7 8 0 0
BITMAP
C0
60
60
7E
60
60
60
F0
ENDCHAR
STARTCHAR uni0372
ENCODING 882
SWIDTH 450 0
DWIDTH 9 0
BBX 8 15 0 -4
BITMAP
FF
DB
18
18
18
18
18
18
18
18
18
18
18
18
18
ENDCHAR
STARTCHAR uni0373
ENCODING 883
SWIDTH 450 0
DWIDTH 9 0
BBX 8 15 0 -4
BITMAP
7F
DB
18
18
18
18
18
18
18
18
18
18
18
18
18
ENDCHAR
STARTCHAR uni0374
ENCODING 884
SWIDTH 200 0
DWIDTH 4 0
BBX 3 4 0 8
BITMAP
60
60
C0
C0
ENDCHAR
STARTCHAR uni0375
ENCODING 885
SWIDTH 200 0
DWIDTH 4 0
BBX 3 4 0 -1
BITMAP
60
60
C0
C0
ENDCHAR
STARTCHAR uni0376
ENCODING 886
SWIDTH 550 0
DWIDTH 11 0
BBX 10 11 0 0
BITMAP
F1C0
6380
6380
6780
6780
6D80
6D80
7980
7980
7180
63C0
ENDCHAR
STARTCHAR uni0377
ENCODING 887
SWIDTH 500 0
DWIDTH 10 0
BBX 9 8 0 0
BITMAP
F380
6700
6F00
6F00
7B00
7B00
7300
6780
ENDCHAR
STARTCHAR uni037A
ENCODING 890
SWIDTH 250 0
DWIDTH 5 0
BBX 4 4 0 -2
BITMAP
E0
60
60
30
ENDCHAR
STARTCHAR uni037B
ENCODING 891
SWIDTH 450 0
DWIDTH 9 0
BBX 8 8 0 0
BITMAP
FC
E6
C3
03
03
C3
66
3C
ENDCHAR
STARTCHAR uni037C
ENCODING 892
SWIDTH 450 0
DWIDTH 9 0
BBX 8 8 0 0
BITMAP
3F
67
C3
D8
D8
C3
66
3C
ENDCHAR
STARTCHAR uni037D
ENCODING 893
SWIDTH 450 0
DWIDTH 9 0
BBX 8 8 0 0
BITMAP
FC
E6
C3
1B
1B
C3
66
3C
ENDCHAR
STARTCHAR uni037E
ENCODING 894
SWIDTH 200 0
DWIDTH 4 0
BBX 3 8 0 -1
BITMAP
60
60
00
00
00
60
60
C0
ENDCHAR
STARTCHAR tonos
ENCODING 900
SWIDTH 250 0
DWIDTH 5 0
BBX 4 3 0 9
BITMAP
30
60
C0
ENDCHAR
STARTCHAR dieresistonos
ENCODING 901
SWIDTH 350 0
DWIDTH 7 0
BBX 6 4 0 9
BITMAP
18
30
00
FC
ENDCHAR
STARTCHAR Alphatonos
ENCODING 902
SWIDTH 550 0
DWIDTH 11 0
BBX 10 11 0 0
BITMAP
7C00
CC00
1E00
1E00
1E00
3300
3F00
3300
6180
6180
F3C0
ENDCHAR
STARTCHAR anoteleia
ENCODING 903
SWIDTH 150 0
DWIDTH 3 0
BBX 2 2 0 5
BITMAP
C0
C0
ENDCHAR
STARTCHAR Epsilontonos
ENCODING 904
SWIDTH 650 0
DWIDTH 13 0
BBX 12 11 0 0
BITMAP
7FF0
CC30
0C00
0C00
0CC0
0FC0
0CC0
0C00
0C00
0C30
1FF0
ENDCHAR
STARTCHAR Etatonos
ENCODING 905
SWIDTH 700 0
DWIDTH 14 0
BBX 13 11 0 0
BITMAP
7E78
CC30
0C30
0C30
0C30
0FF0
0C30
0C30
0C30
0C30
1E78
ENDCHAR
STARTCHAR Iotatonos
ENCODING 906
SWIDTH 400 0
DWIDTH 8 0
BBX 7 11 0 0
BITMAP
7E
CC
0C
0C
0C
0C
0C
0C
0C
0C
1E
ENDCHAR
STARTCHAR Omicrontonos
ENCODING 908
SWIDTH 650 0
DWIDTH 13 0
BBX 12 11 0 0
BITMAP
6780
DCE0
1860
3030
3030
3030
3030
3030
1860
1CE0
0780
ENDCHAR
STARTCHAR Upsilontonos
ENCODING 910
SWIDTH 700 0
DWIDTH 14 0
BBX 13 11 0 0
BITMAP
7E78
CC30
0660
0660
03C0
0180
0180
0180
0180
0180
03C0
ENDCHAR
STARTCHAR Omegatonos
ENCODING 911
SWIDTH 700 0
DWIDTH 14 0
BBX 13 11 0 0
BITMAP
67C0
DC70
1830
3018
3018
3018
1830
1C70
06C0
36D8
3EF8
ENDCHAR
STARTCHAR iotadieresistonos
ENCODING 912
SWIDTH 250 0
DWIDTH 5 0
BBX 6 13 -1 0
BITMAP
18
30
00
FC
00
70
30
30
30
30
30
30
18
ENDCHAR
STARTCHAR Alpha
ENCODING 913
SWIDTH 550 0
DWIDTH 11 0
BBX 10 11 0 0
BITMAP
1C00
0C00
1E00
1E00
1E00
3300
3F00
3300
6180
6180
F3C0
ENDCHAR
STARTCHAR Beta
ENCODING 914
SWIDTH 500 0
DWIDTH 10 0
BBX 9 11 0 0
BITMAP
FE00
6300
6180
6180
6300
7E00
6300
6180
6180
6300
FE00
ENDCHAR
STARTCHAR Gamma
ENCODING 915
SWIDTH 500 0
DWIDTH 10 0
BBX 9 11 0 0
BITMAP
FF80
6180
6000
6000
6000
6000
6000
6000
6000
6000
F000
ENDCHAR
STARTCHAR Delta
ENCODING 916
SWIDTH 550 0
DWIDTH 11 0
BBX 10 11 0 0
BITMAP
0C00
0C00
1E00
1E00
3300
3300
3300
6180
6180
C0C0
FFC0
ENDCHAR
STARTCHAR Epsilon
ENCODING 917
SWIDTH 500 0
DWIDTH 10 0
BBX 9 11 0 0
BITMAP
FF80
6180
6000
6000
6600
7E00
6600
6000
6000
6180
FF80
ENDCHAR
STARTCHAR Zeta
ENCODING 918
SWIDTH 450 0
DWIDTH 9 0
BBX 8 11 0 0
BITMAP
FF
C3
06
0C
0C
18
30
30
60
C3
FF
ENDCHAR
STARTCHAR Eta
ENCODING 919
SWIDTH 550 0
DWIDTH 11 0
BBX 10 11 0 0
BITMAP
F3C0
6180
6180
6180
6180
7F80
6180
6180
6180
6180
F3C0
ENDCHAR
STARTCHAR Theta
ENCODING 920
SWIDTH 550 0
DWIDTH 11 0
BBX 10 11 0 0
BITMAP
1E00
7380
6180
C0C0
F3C0
FFC0
F3C0
C0C0
6180
7380
1E00
ENDCHAR
STARTCHAR Iota
ENCODING 921
SWIDTH 250 0
DWIDTH 5 0
BBX 4 11 0 0
BITMAP
F0
60
60
60
60
60
60
60
60
60
F0
ENDCHAR
STARTCHAR Kappa
ENCODING 922
SWIDTH 500 0
DWIDTH 10 0
BBX 9 11 0 0
BITMAP
F780
6300
6600
6C00
7800
7C00
6600
6600
6300
6300
F780
ENDCHAR
STARTCHAR Lambda
ENCODING 923
SWIDTH 550 0
DWIDTH 11 0
BBX 10 11 0 0
BITMAP
1C00
0C00
1E00
1E00
1E00
3300
3300
3300
6180
6180
F3C0
ENDCHAR
STARTCHAR Mu
ENCODING 924
SWIDTH 650 0
DWIDTH 13 0
BBX 12 11 0 0
BITMAP
E070
70E0
79E0
6F60
6660
6660
6060
6060
6060
6060
F0F0
ENDCHAR
STARTCHAR Nu
ENCODING 925
SWIDTH 550 0
DWIDTH 11 0
BBX 10 11 0 0
BITMAP
E3C0
7180
7180
7980
7980
6D80
6D80
6780
6780
6380
F180
ENDCHAR
STARTCHAR Xi
ENCODING 926
SWIDTH 450 0
DWIDTH 9 0
BBX 8 11 0 0
BITMAP
FF
C3
00
00
66
7E
66
00
00
C3
FF
ENDCHAR
STARTCHAR Omicron
ENCODING 927
SWIDTH 550 0
DWIDTH 11 0
BBX 10 11 0 0
BITMAP
1E00
7380
6180
C0C0
C0C0
C0C0
C0C0
C0C0
6180
7380
1E00
ENDCHAR
STARTCHAR Pi
ENCODING 928
SWIDTH 550 0
DWIDTH 11 0
BBX 10 11 0 0
BITMAP
FFC0
6180
6180
6180
6180
6180
6180
6180
6180
6180
F3C0
ENDCHAR
STARTCHAR Rho
ENCODING 929
SWIDTH 500 0
DWIDTH 10 0
BBX 9 11 0 0
BITMAP
FE00
6300
6180
6180
6300
7E00
6000
6000
6000
6000
F000
ENDCHAR
STARTCHAR Sigma
ENCODING 931
SWIDTH 500 0
DWIDTH 10 0
BBX 9 11 0 0
BITMAP
FF80
6180
3000
1800
0C00
0600
0C00
1800
3000
6180
FF80
ENDCHAR
STARTCHAR Tau
ENCODING 932
SWIDTH 450 0
DWIDTH 9 0
BBX 8 11 0 0
BITMAP
FF
DB
18
18
18
18
18
18
18
18
3C
ENDCHAR
STARTCHAR Upsilon
ENCODING 933
SWIDTH 550 0
DWIDTH 11 0
BBX 10 11 0 0
BITMAP
F3C0
6180
3300
3300
1E00
0C00
0C00
0C00
0C00
0C00
1E00
ENDCHAR
STARTCHAR Phi
ENCODING 934
SWIDTH 450 0
DWIDTH 9 0
BBX 8 11 0 0
BITMAP
3C
18
3C
7E
DB
DB
DB
7E
3C
18
3C
ENDCHAR
STARTCHAR Chi
ENCODING 935
SWIDTH 550 0
DWIDTH 11 0
BBX 10 11 0 0
BITMAP
F3C0
6180
3300
3300
1E00
0C00
1E00
3300
3300
6180
F3C0
ENDCHAR
STARTCHAR Psi
ENCODING 936
SWIDTH 550 0
DWIDTH 11 0
BBX 10 11 0 0
BITMAP
DEC0
6D80
6D80
6D80
3F00
1E00
0C00
0C00
0C00
0C00
1E00
ENDCHAR
STARTCHAR Omega
ENCODING 937
SWIDTH 600 0
DWIDTH 12 0
BBX 11 11 0 0
BITMAP
1F00
71C0
60C0
C060
C060
C060
60C0
71C0
1B00
DB60
FBE0
ENDCHAR
STARTCHAR Iotadieresis
ENCODING 938
SWIDTH 250 0
DWIDTH 5 0
BBX 6 13 -1 0
BITMAP
FC
00
78
30
30
30
30
30
30
30
30
30
78
ENDCHAR
STARTCHAR Upsilondieresis
ENCODING 939
SWIDTH 550 0
DWIDTH 11 0
BBX 10 13 0 0
BITMAP
3F00
0000
F3C0
6180
3300
3300
1E00
0C00
0C00
0C00
0C00
0C00
1E00
ENDCHAR
STARTCHAR alphatonos
ENCODING 940
SWIDTH 500 0
DWIDTH 10 0
BBX 9 11 0 0
BITMAP
0C00
1800
0000
3980
6F00
C600
C600
C600
C600
6F00
3980
ENDCHAR
STARTCHAR epsilontonos
ENCODING 941
SWIDTH 400 0
DWIDTH 8 0
BBX 7 11 0 0
BITMAP
18
30
00
7C
C6
C0
7C
C0
C0
C6
7C
ENDCHAR
STARTCHAR etatonos
ENCODING 942
SWIDTH 450 0
DWIDTH 9 0
BBX 8 15 0 -4
BITMAP
0C
18
00
FC
76
63
63
63
63
63
F3
03
03
03
03
ENDCHAR
STARTCHAR iotatonos
ENCODING 943
SWIDTH 250 0
DWIDTH 5 0
BBX 4 11 0 0
BITMAP
30
60
00
E0
60
60
60
60
60
60
30
ENDCHAR
STARTCHAR upsilondieresistonos
ENCODING 944
SWIDTH 450 0
DWIDTH 9 0
BBX 8 13 0 0
BITMAP
0C
18
00
7E
00
EC
66
63
63
63
63
36
1C
ENDCHAR
STARTCHAR alpha
ENCODING 945
SWIDTH 500 0
DWIDTH 10 0
BBX 9 8 0 0
BITMAP
3980
6F00
C600
C600
C600
C600
6F00
3980
ENDCHAR
STARTCHAR beta
ENCODING 946
SWIDTH 450 0
DWIDTH 9 0
BBX 8 15 0 -4
BITMAP
3C
66
C3
C3
C6
DC
C6
C3
C3
C6
DC
C0
C0
C0
C0
ENDCHAR
STARTCHAR gamma
ENCODING 947
SWIDTH 400 0
DWIDTH 8 0
BBX 7 12 0 -3
BITMAP
06
EC
3C
18
18
18
30
30
30
60
60
60
ENDCHAR
STARTCHAR delta
ENCODING 948
SWIDTH 450 0
DWIDTH 9 0
BBX 8 12 0 0
BITMAP
1C
36
30
18
3C
66
C3
C3
C3
C3
66
3C
ENDCHAR
STARTCHAR epsilon
ENCODING 949
SWIDTH 400 0
DWIDTH 8 0
BBX 7 8 0 0
BITMAP
7C
C6
C0
7C
C0
C0
C6
7C
ENDCHAR
STARTCHAR zeta
ENCODING 950
SWIDTH 400 0
DWIDTH 8 0
BBX 7 17 0 -4
BITMAP
C0
60
3E
60
60
C0
C0
C0
C0
C0
C0
60
3C
06
06
0C
38
ENDCHAR
STARTCHAR eta
ENCODING 951
SWIDTH 450 0
DWIDTH 9 0
BBX 8 12 0 -4
BITMAP
FC
76
63
63
63
63
63
F3
03
03
03
03
ENDCHAR
STARTCHAR theta
ENCODING 952
SWIDTH 450 0
DWIDTH 9 0
BBX 8 11 0 0
BITMAP
1C
76
63
C3
C3
FF
C3
C3
C6
6E
38
ENDCHAR
STARTCHAR iota
ENCODING 953
SWIDTH 250 0
DWIDTH 5 0
BBX 4 8 0 0
BITMAP
E0
60
60
60
60
60
60
30
ENDCHAR
STARTCHAR kappa
ENCODING 954
SWIDTH 500 0
DWIDTH 10 0
BBX 9 8 0 0
BITMAP
FF00
6600
6C00
7800
7C00
6600
6300
F780
ENDCHAR
STARTCHAR lambda
ENCODING 955
SWIDTH 450 0
DWIDTH 9 0
BBX 8 12 0 0
BITMAP
C0
60
30
30
18
18
3C
3C
3C
66
66
FF
ENDCHAR
STARTCHAR mu
ENCODING 956
SWIDTH 500 0
DWIDTH 10 0
BBX 9 12 0 -4
BITMAP
E700
6300
6300
6300
6300
6300
7700
7F80
6000
6000
6000
6000
ENDCHAR
STARTCHAR nu
ENCODING 957
SWIDTH 450 0
DWIDTH 9 0
BBX 8 8 0 0
BITMAP
E7
63
63
63
66
66
6C
78
ENDCHAR
STARTCHAR xi
ENCODING 958
SWIDTH 400 0
DWIDTH 8 0
BBX 7 17 0 -4
BITMAP
C0
60
3E
60
60
3C
60
C0
C0
C0
C0
60
3C
06
06
0C
38
ENDCHAR
STARTCHAR omicron
ENCODING 959
SWIDTH 450 0
DWIDTH 9 0
BBX 8 8 0 0
BITMAP
3C
66
C3
C3
C3
C3
66
3C
ENDCHAR
STARTCHAR pi
ENCODING 960
SWIDTH 500 0
DWIDTH 10 0
BBX 9 9 0 0
BITMAP
0180
7F00
F600
3600
3600
3600
3600
6600
6300
ENDCHAR
STARTCHAR rho
ENCODING 961
SWIDTH 450 0
DWIDTH 9 0
BBX 8 12 0 -4
BITMAP
3C
66
C3
C3
C3
C3
E6
FC
C0
C0
C0
C0
ENDCHAR
STARTCHAR sigma1
ENCODING 962
SWIDTH 450 0
DWIDTH 9 0
BBX 8 12 0 -4
BITMAP
3F
60
C0
C0
C0
C0
60
3E
03
03
06
3C
ENDCHAR
STARTCHAR sigma
ENCODING 963
SWIDTH 450 0
DWIDTH 9 0
BBX 9 8 0 0
BITMAP
3F80
6600
C300
C300
C300
C300
6600
3C00
ENDCHAR
STARTCHAR tau
ENCODING 964
SWIDTH 450 0
DWIDTH 9 0
BBX 8 8 0 0
BITMAP
7F
D8
18
18
18
18
18
0C
ENDCHAR
STARTCHAR upsilon
ENCODING 965
SWIDTH 450 0
DWIDTH 9 0
BBX 8 8 0 0
BITMAP
EC
66
63
63
63
63
36
1C
ENDCHAR
STARTCHAR phi
ENCODING 966
SWIDTH 450 0
DWIDTH 9 0
BBX 8 12 0 -4
BITMAP
6C
DE
DB
DB
DB
DB
7E
3C
18
18
18
18
ENDCHAR
STARTCHAR chi
ENCODING 967
SWIDTH 500 0
DWIDTH 10 0
BBX 9 12 0 -4
BITMAP
E180
F300
3300
1E00
1C00
1C00
1C00
1C00
3C00
6600
6780
C380
ENDCHAR
STARTCHAR psi
ENCODING 968
SWIDTH 550 0
DWIDTH 11 0
BBX 10 12 0 -4
BITMAP
CCC0
6D80
6D80
6D80
6D80
6D80
3F00
1E00
0C00
0C00
0C00
0C00
ENDCHAR
STARTCHAR omega
ENCODING 969
SWIDTH 650 0
DWIDTH 13 0
BBX 12 8 0 0
BITMAP
30C0
6060
C030
C630
C630
C630
6F60
39C0
ENDCHAR
STARTCHAR iotadieresis
ENCODING 970
SWIDTH 250 0
DWIDTH 5 0
BBX 6 10 -1 0
BITMAP
FC
00
70
30
30
30
30
30
30
18
ENDCHAR
STARTCHAR upsilondieresis
ENCODING 971
SWIDTH 450 0
DWIDTH 9 0
BBX 8 10 0 0
BITMAP
7E
00
EC
66
63
63
63
63
36
1C
ENDCHAR
STARTCHAR omicrontonos
ENCODING 972
SWIDTH 450 0
DWIDTH 9 0
BBX 8 11 0 0
BITMAP
0C
18
00
3C
66
C3
C3
C3
C3
66
3C
ENDCHAR
STARTCHAR upsilontonos
ENCODING 973
SWIDTH 450 0
DWIDTH 9 0
BBX 8 11 0 0
BITMAP
0C
18
00
EC
66
63
63
63
63
36
1C
ENDCHAR
STARTCHAR omegatonos
ENCODING 974
SWIDTH 650 0
DWIDTH 13 0
BBX 12 11 0 0
BITMAP
0300
0600
0000
30C0
6060
C030
C630
C630
C630
6F60
39C0
ENDCHAR
STARTCHAR uni0400
ENCODING 1024
SWIDTH 500 0
DWIDTH 10 0
BBX 9 14 0 0
BITMAP
1800
0C00
0000
FF80
6180
6000
6000
6600
7E00
6600
6000
6000
6180
FF80
ENDCHAR
STARTCHAR afii10023
ENCODING 1025
SWIDTH 500 0
DWIDTH 10 0
BBX 9 13 0 0
BITMAP
7700
0000
FF80
6180
6000
6000
6600
7E00
6600
6000
6000
6180
FF80
ENDCHAR
STARTCHAR afii10051
ENCODING 1026
SWIDTH 550 0
DWIDTH 11 0
BBX 10 15 0 -4
BITMAP
FF00
DB00
1800
1F00
1D80
18C0
18C0
18C0
18C0
18C0
3CC0
00C0
00C0
0D80
0700
ENDCHAR
STARTCHAR afii10052
ENCODING 1027
SWIDTH 500 0
DWIDTH 10 0
BBX 9 14 0 0
BITMAP
0C00
1800
0000
FF80
6180
6000
6000
6000
6000
6000
6000
6000
6000
F000
ENDCHAR
STARTCHAR afii10053
ENCODING 1028
SWIDTH 500 0
DWIDTH 10 0
BBX 9 11 0 0
BITMAP
1F80
7380
6180
C000
C600
FE00
C600
C000
6180
7380
1E00
ENDCHAR
STARTCHAR afii10054
ENCODING 1029
SWIDTH 450 0
DWIDTH 9 0
BBX 8 11 0 0
BITMAP
3F
67
C3
C0
60
3C
06
03
C3
E6
FC
ENDCHAR
STARTCHAR afii10055
ENCODING 1030
SWIDTH 250 0
DWIDTH 5 0
BBX 4 11 0 0
BITMAP
F0
60
60
60
60
60
60
60
60
60
F0
ENDCHAR
STARTCHAR afii10056
ENCODING 1031
SWIDTH 250 0
DWIDTH 5 0
BBX 6 13 -1 0
BITMAP
FC
00
78
30
30
30
30
30
30
30
30
30
78
ENDCHAR
STARTCHAR afii10057
ENCODING 1032
SWIDTH 500 0
DWIDTH 10 0
BBX 9 11 0 0
BITMAP
0780
0300
0300
0300
0300
0300
0300
0300
C600
EE00
3800
ENDCHAR
STARTCHAR afii10058
ENCODING 1033
SWIDTH 800 0
DWIDTH 16 0
BBX 15 11 0 0
BITMAP
3FC0
1980
1980
1980
1980
19F8
198C
1986
D986
D98C
73F8
ENDCHAR
STARTCHAR afii10059
ENCODING 1034
SWIDTH 750 0
DWIDTH 15 0
BBX 14 11 0 0
BITMAP
F780
6300
6300
6300
6300
7FF0
6318
630C
630C
6318
F7F0
ENDCHAR
STARTCHAR afii10060
ENCODING 1035
SWIDTH 600 0
DWIDTH 12 0
BBX 11 11 0 0
BITMAP
FF00
DB00
1800
1F00
1D80
18C0
18C0
18C0
18C0
18C0
3DE0
ENDCHAR
STARTCHAR afii10061
ENCODING 1036
SWIDTH 500 0
DWIDTH 10 0
BBX 9 14 0 0
BITMAP
0C00
1800
0000
F780
6300
6600
6C00
7800
7C00
6600
6600
6300
6300
F780
ENDCHAR
STARTCHAR uni040D
ENCODING 1037
SWIDTH 550 0
DWIDTH 11 0
BBX 10 14 0 0
BITMAP
1800
0C00
0000
F1C0
6380
6380
6780
6780
6D80
6D80
7980
7980
7180
63C0
ENDCHAR
STARTCHAR afii10062
ENCODING 1038
SWIDTH 550 0
DWIDTH 11 0
BBX 10 14 0 0
BITMAP
3300
1E00
0000
F3C0
6180
3300
3300
1E00
0C00
0C00
1800
1800
F000
6000
ENDCHAR
STARTCHAR afii10145
ENCODING 1039
SWIDTH 550 0
DWIDTH 11 0
BBX 10 13 0 -2
BITMAP
F3C0
6180
6180
6180
6180
6180
6180
6180
6180
6180
FFC0
0C00
0C00
ENDCHAR
STARTCHAR afii10017
ENCODING 1040
SWIDTH 550 0
DWIDTH 11 0
BBX 10 11 0 0
BITMAP
1C00
0C00
1E00
1E00
1E00
3300
3F00
3300
6180
6180
F3C0
ENDCHAR
STARTCHAR afii10018
ENCODING 1041
SWIDTH 500 0
DWIDTH 10 0
BBX 9 11 0 0
BITMAP
FF00
6300
6000
6000
6000
7E00
6300
6180
6180
6300
FE00
ENDCHAR
STARTCHAR afii10019
ENCODING 1042
SWIDTH 500 0
DWIDTH 10 0
BBX 9 11 0 0
BITMAP
FE00
6300
6180
6180
6300
7E00
6300
6180
6180
6300
FE00
ENDCHAR
STARTCHAR afii10020
ENCODING 1043
SWIDTH 500 0
DWIDTH 10 0
BBX 9 11 0 0
BITMAP
FF80
6180
6000
6000
6000
6000
6000
6000
6000
6000
F000
ENDCHAR
STARTCHAR afii10021
ENCODING 1044
SWIDTH 550 0
DWIDTH 11 0
BBX 10 13 0 -2
BITMAP
3FC0
1980
1980
1980
1980
1980
1980
3180
3180
6180
FFC0
C0C0
C0C0
ENDCHAR
STARTCHAR afii10022
ENCODING 1045
SWIDTH 500 0
DWIDTH 10 0
BBX 9 11 0 0
BITMAP
FF80
6180
6000
6000
6600
7E00
6600
6000
6000
6180
FF80
ENDCHAR
STARTCHAR afii10024
ENCODING 1046
SWIDTH 750 0
DWIDTH 15 0
BBX 14 11 0 0
BITMAP
F7BC
6318
3330
1B60
0FC0
1FE0
3330
3330
6318
6318
F7BC
ENDCHAR
STARTCHAR afii10025
ENCODING 1047
SWIDTH 450 0
DWIDTH 9 0
BBX 8 11 0 0
BITMAP
FC
E6
C3
03
06
3C
06
03
C3
66
3C
ENDCHAR
STARTCHAR afii10026
ENCODING 1048
SWIDTH 550 0
DWIDTH 11 0
BBX 10 11 0 0
BITMAP
F1C0
6380
6380
6780
6780
6D80
6D80
7980
7980
7180
63C0
ENDCHAR
STARTCHAR afii10027
ENCODING 1049
SWIDTH 550 0
DWIDTH 11 0
BBX 10 14 0 0
BITMAP
3300
1E00
0000
F1C0
6380
6380
6780
6780
6D80
6D80
7980
7980
7180
63C0
ENDCHAR
STARTCHAR afii10028
ENCODING 1050
SWIDTH 500 0
DWIDTH 10 0
BBX 9 11 0 0
BITMAP
F780
6300
6600
6C00
7800
7C00
6600
6600
6300
6300
F780
ENDCHAR
STARTCHAR afii10029
ENCODING 1051
SWIDTH 550 0
DWIDTH 11 0
BBX 10 11 0 0
BITMAP
3FC0
1980
1980
1980
1980
1980
1980
1980
D980
D980
73C0
ENDCHAR
STARTCHAR afii10030
ENCODING 1052
SWIDTH 650 0
DWIDTH 13 0
BBX 12 11 0 0
BITMAP
E070
70E0
79E0
6F60
6660
6660
6060
6060
6060
6060
F0F0
ENDCHAR
STARTCHAR afii10031
ENCODING 1053
SWIDTH 550 0
DWIDTH 11 0
BBX 10 11 0 0
BITMAP
F3C0
6180
6180
6180
6180
7F80
6180
6180
6180
6180
F3C0
ENDCHAR
STARTCHAR afii10032
ENCODING 1054
SWIDTH 550 0
DWIDTH 11 0
BBX 10 11 0 0
BITMAP
1E00
7380
6180
C0C0
C0C0
C0C0
C0C0
C0C0
6180
7380
1E00
ENDCHAR
STARTCHAR afii10033
ENCODING 1055
SWIDTH 550 0
DWIDTH 11 0
BBX 10 11 0 0
BITMAP
FFC0
6180
6180
6180
6180
6180
6180
6180
6180
6180
F3C0
ENDCHAR
STARTCHAR afii10034
ENCODING 1056
SWIDTH 500 0
DWIDTH 10 0
BBX 9 11 0 0
BITMAP
FE00
6300
6180
6180
6300
7E00
6000
6000
6000
6000
F000
ENDCHAR
STARTCHAR afii10035
ENCODING 1057
SWIDTH 500 0
DWIDTH 10 0
BBX 9 11 0 0
BITMAP
1F80
7380
6180
C000
C000
C000
C000
C000
6180
7380
1E00
ENDCHAR
STARTCHAR afii10036
ENCODING 1058
SWIDTH 450 0
DWIDTH 9 0
BBX 8 11 0 0
BITMAP
FF
DB
18
18
18
18
18
18
18
18
3C
ENDCHAR
STARTCHAR afii10037
ENCODING 1059
SWIDTH 550 0
DWIDTH 11 0
BBX 10 11 0 0
BITMAP
F3C0
6180
3300
3300
1E00
0C00
0C00
1800
1800
F000
6000
ENDCHAR
STARTCHAR afii10038
ENCODING 1060
SWIDTH 550 0
DWIDTH 11 0
BBX 10 11 0 0
BITMAP
1E00
0C00
3F00
6D80
CCC0
CCC0
CCC0
6D80
3F00
0C00
1E00
ENDCHAR
STARTCHAR afii10039
ENCODING 1061
SWIDTH 550 0
DWIDTH 11 0
BBX 10 11 0 0
BITMAP
F3C0
6180
3300
3300
1E00
0C00
1E00
3300
3300
6180
F3C0
ENDCHAR
STARTCHAR afii10040
ENCODING 1062
SWIDTH 550 0
DWIDTH 11 0
BBX 10 13 0 -2
BITMAP
F3C0
6180
6180
6180
6180
6180
6180
6180
6180
6180
FFC0
00C0
00C0
ENDCHAR
STARTCHAR afii10041
ENCODING 1063
SWIDTH 550 0
DWIDTH 11 0
BBX 10 11 0 0
BITMAP
F3C0
6180
6180
6180
3380
1F80
0180
0180
0180
0180
03C0
ENDCHAR
STARTCHAR afii10042
ENCODING 1064
SWIDTH 650 0
DWIDTH 13 0
BBX 12 11 0 0
BITMAP
FFF0
6660
6660
6660
6660
6660
6660
6660
6660
6660
FFF0
ENDCHAR
STARTCHAR afii10043
ENCODING 1065
SWIDTH 650 0
DWIDTH 13 0
BBX 12 13 0 -2
BITMAP
FFF0
6660
6660
6660
6660
6660
6660
6660
6660
6660
FFF0
0030
0030
ENDCHAR
STARTCHAR afii10044
ENCODING 1066
SWIDTH 600 0
DWIDTH 12 0
BBX 11 11 0 0
BITMAP
FC00
D800
1800
1800
1800
1F80
18C0
1860
1860
18C0
3F80
ENDCHAR
STARTCHAR afii10045
ENCODING 1067
SWIDTH 650 0
DWIDTH 13 0
BBX 12 11 0 0
BITMAP
F0F0
6060
6060
6060
6060
7E60
6360
61E0
61E0
6360
FEF0
ENDCHAR
STARTCHAR afii10046
ENCODING 1068
SWIDTH 500 0
DWIDTH 10 0
BBX 9 11 0 0
BITMAP
F000
6000
6000
6000
6000
7E00
6300
6180
6180
6300
FE00
ENDCHAR
STARTCHAR afii10047
ENCODING 1069
SWIDTH 500 0
DWIDTH 10 0
BBX 9 11 0 0
BITMAP
FC00
E700
C300
0180
3180
3F80
3180
0180
C300
E700
3C00
ENDCHAR
STARTCHAR afii10048
ENCODING 1070
SWIDTH 700 0
DWIDTH 14 0
BBX 13 11 0 0
BITMAP
F3C0
6E70
6C30
7818
7818
7818
7818
7818
6C30
6E70
F3C0
ENDCHAR
STARTCHAR afii10049
ENCODING 1071
SWIDTH 500 0
DWIDTH 10 0
BBX 9 11 0 0
BITMAP
3F80
6300
C300
C300
6300
3F00
1B00
3300
6300
6300
C780
ENDCHAR
STARTCHAR afii10065
ENCODING 1072
SWIDTH 450 0
DWIDTH 9 0
BBX 8 8 0 0
BITMAP
3C
66
06
3E
66
C6
CE
7F
ENDCHAR
STARTCHAR afii10066
ENCODING 1073
SWIDTH 450 0
DWIDTH 9 0
BBX 8 12 0 0
BITMAP
38
60
C0
C0
FC
E6
C3
C3
C3
C3
66
3C
ENDCHAR
STARTCHAR afii10067
ENCODING 1074
SWIDTH 450 0
DWIDTH 9 0
BBX 8 8 0 0
BITMAP
FE
63
63
7E
63
63
63
FE
ENDCHAR
STARTCHAR afii10068
ENCODING 1075
SWIDTH 400 0
DWIDTH 8 0
BBX 7 8 0 0
BITMAP
FE
66
60
60
60
60
60
F0
ENDCHAR
STARTCHAR afii10069
ENCODING 1076
SWIDTH 450 0
DWIDTH 9 0
BBX 8 10 0 -2
BITMAP
7F
36
36
36
36
66
66
FF
C3
C3
ENDCHAR
STARTCHAR afii10070
ENCODING 1077
SWIDTH 450 0
DWIDTH 9 0
BBX 8 8 0 0
BITMAP
3C
66
C3
FF
C0
C0
66
3C
ENDCHAR
STARTCHAR afii10072
ENCODING 1078
SWIDTH 750 0
DWIDTH 15 0
BBX 14 8 0 0
BITMAP
7FF8
3330
1B60
0FC0
1FE0
3330
6318
F7BC
ENDCHAR
STARTCHAR afii10073
ENCODING 1079
SWIDTH 400 0
DWIDTH 8 0
BBX 7 8 0 0
BITMAP
FC
E6
06
7C
06
06
C6
7C
ENDCHAR
STARTCHAR afii10074
ENCODING 1080
SWIDTH 500 0
DWIDTH 10 0
BBX 9 8 0 0
BITMAP
F380
6700
6F00
6F00
7B00
7B00
7300
6780
ENDCHAR
STARTCHAR afii10075
ENCODING 1081
SWIDTH 500 0
DWIDTH 10 0
BBX 9 11 0 0
BITMAP
6300
3E00
0000
F380
6700
6F00
6F00
7B00
7B00
7300
6780
ENDCHAR
STARTCHAR afii10076
ENCODING 1082
SWIDTH 500 0
DWIDTH 10 0
BBX 9 8 0 0
BITMAP
FF00
6600
6C00
7800
7C00
6600
6300
F780
ENDCHAR
STARTCHAR afii10077
ENCODING 1083
SWIDTH 450 0
DWIDTH 9 0
BBX 8 8 0 0
BITMAP
7F
36
36
36
36
36
36
EF
ENDCHAR
STARTCHAR afii10078
ENCODING 1084
SWIDTH 550 0
DWIDTH 11 0
BBX 10 8 0 0
BITMAP
E1C0
7380
7F80
6D80
6D80
6180
6180
F3C0
ENDCHAR
STARTCHAR afii10079
ENCODING 1085
SWIDTH 500 0
DWIDTH 10 0
BBX 9 8 0 0
BITMAP
F780
6300
6300
7F00
6300
6300
6300
F780
ENDCHAR
STARTCHAR afii10080
ENCODING 1086
SWIDTH 450 0
DWIDTH 9 0
BBX 8 8 0 0
BITMAP
3C
66
C3
C3
C3
C3
66
3C
ENDCHAR
STARTCHAR afii10081
ENCODING 1087
SWIDTH 500 0
DWIDTH 10 0
BBX 9 8 0 0
BITMAP
FF80
6300
6300
6300
6300
6300
6300
F780
ENDCHAR
STARTCHAR afii10082
ENCODING 1088
SWIDTH 500 0
DWIDTH 10 0
BBX 9 12 0 -4
BITMAP
FE00
7300
6180
6180
6180
6180
7300
7E00
6000
6000
6000
F000
ENDCHAR
STARTCHAR afii10083
ENCODING 1089
SWIDTH 450 0
DWIDTH 9 0
BBX 8 8 0 0
BITMAP
3F
67
C3
C0
C0
C3
66
3C
ENDCHAR
STARTCHAR afii10084
ENCODING 1090
SWIDTH 450 0
DWIDTH 9 0
BBX 8 8 0 0
BITMAP
FF
DB
18
18
18
18
18
3C
ENDCHAR
STARTCHAR afii10085
ENCODING 1091
SWIDTH 450 0
DWIDTH 9 0
BBX 8 12 0 -4
BITMAP
FF
66
66
3C
3C
3C
18
18
30
30
60
C0
ENDCHAR
STARTCHAR afii10086
ENCODING 1092
SWIDTH 650 0
DWIDTH 13 0
BBX 12 16 0 -4
BITMAP
0F00
0600
0600
0600
3FC0
6F60
C630
C630
C630
C630
6F60
3FC0
0600
0600
0600
0F00
ENDCHAR
STARTCHAR afii10087
ENCODING 1093
SWIDTH 450 0
DWIDTH 9 0
BBX 8 8 0 0
BITMAP
FF
66
3C
18
18
3C
66
FF
ENDCHAR
STARTCHAR afii10088
ENCODING 1094
SWIDTH 500 0
DWIDTH 10 0
BBX 9 10 0 -2
BITMAP
F780
6300
6300
6300
6300
6300
6300
FF80
0180
0180
ENDCHAR
STARTCHAR afii10089
ENCODING 1095
SWIDTH 500 0
DWIDTH 10 0
BBX 9 8 0 0
BITMAP
F780
6300
6300
3F00
0300
0300
0300
0780
ENDCHAR
STARTCHAR afii10090
ENCODING 1096
SWIDTH 650 0
DWIDTH 13 0
BBX 12 8 0 0
BITMAP
FFF0
6660
6660
6660
6660
6660
6660
FFF0
ENDCHAR
STARTCHAR afii10091
ENCODING 1097
SWIDTH 650 0
DWIDTH 13 0
BBX 12 10 0 -2
BITMAP
FFF0
6660
6660
6660
6660
6660
6660
FFF0
0030
0030
ENDCHAR
STARTCHAR afii10092
ENCODING 1098
SWIDTH 550 0
DWIDTH 11 0
BBX 10 8 0 0
BITMAP
FC00
D800
1800
1F80
18C0
18C0
18C0
3F80
ENDCHAR
STARTCHAR afii10093
ENCODING 1099
SWIDTH 600 0
DWIDTH 12 0
BBX 11 8 0 0
BITMAP
F1E0
60C0
60C0
7EC0
63C0
63C0
63C0
FFE0
ENDCHAR
STARTCHAR afii10094
ENCODING 1100
SWIDTH 450 0
DWIDTH 9 0
BBX 8 8 0 0
BITMAP
F0
60
60
7E
63
63
63
FE
ENDCHAR
STARTCHAR afii10095
ENCODING 1101
SWIDTH 450 0
DWIDTH 9 0
BBX 8 8 0 0
BITMAP
FC
E6
DB
1F
1B
C3
66
3C
ENDCHAR
STARTCHAR afii10096
ENCODING 1102
SWIDTH 600 0
DWIDTH 12 0
BBX 11 8 0 0
BITMAP
F780
6CC0
7860
7860
7860
7860
6CC0
F780
ENDCHAR
STARTCHAR afii10097
ENCODING 1103
SWIDTH 450 0
DWIDTH 9 0
BBX 8 8 0 0
BITMAP
7F
C6
C6
C6
7E
1E
36
EF
ENDCHAR
STARTCHAR uni0450
ENCODING 1104
SWIDTH 450 0
DWIDTH 9 0
BBX 8 11 0 0
BITMAP
30
18
00
3C
66
C3
FF
C0
C0
66
3C
ENDCHAR
STARTCHAR afii10071
ENCODING 1105
SWIDTH 450 0
DWIDTH 9 0
BBX 8 10 0 0
BITMAP
3C
00
3C
66
C3
FF
C0
C0
66
3C
ENDCHAR
STARTCHAR afii10099
ENCODING 1106
SWIDTH 450 0
DWIDTH 9 0
BBX 8 16 0 -4
BITMAP
E0
60
F0
60
7C
76
63
63
63
63
63
F3
03
03
36
1C
ENDCHAR
STARTCHAR afii10100
ENCODING 1107
SWIDTH 400 0
DWIDTH 8 0
BBX 7 11 0 0
BITMAP
18
30
00
FE
66
60
60
60
60
60
F0
ENDCHAR
STARTCHAR afii10101
ENCODING 1108
SWIDTH 450 0
DWIDTH 9 0
BBX 8 8 0 0
BITMAP
3F
67
DB
F8
D8
C3
66
3C
ENDCHAR
STARTCHAR afii10102
ENCODING 1109
SWIDTH 400 0
DWIDTH 8 0
BBX 7 8 0 0
BITMAP
7E
CE
C6
70
1C
C6
E6
FC
ENDCHAR
STARTCHAR afii10103
ENCODING 1110
SWIDTH 250 0
DWIDTH 5 0
BBX 4 12 0 0
BITMAP
60
60
00
00
E0
60
60
60
60
60
60
F0
ENDCHAR
STARTCHAR afii10104
ENCODING 1111
SWIDTH 250 0
DWIDTH 5 0
BBX 6 11 -1 0
BITMAP
FC
00
00
70
30
30
30
30
30
30
78
ENDCHAR
STARTCHAR afii10105
ENCODING 1112
SWIDTH 200 0
DWIDTH 4 0
BBX 5 16 -2 -4
BITMAP
18
18
00
00
38
18
18
18
18
18
18
18
18
18
30
E0
ENDCHAR
STARTCHAR afii10106
ENCODING 1113
SWIDTH 650 0
DWIDTH 13 0
BBX 12 8 0 0
BITMAP
7F00
3600
3600
37E0
3630
3630
3630
EFE0
ENDCHAR
STARTCHAR afii10107
ENCODING 1114
SWIDTH 650 0
DWIDTH 13 0
BBX 12 8 0 0
BITMAP
FF00
6600
6600
7FE0
6630
6630
6630
FFE0
ENDCHAR
STARTCHAR afii10108
ENCODING 1115
SWIDTH 500 0
DWIDTH 10 0
BBX 9 12 0 0
BITMAP
E000
6000
F000
6000
7C00
7600
6300
6300
6300
6300
6300
F780
ENDCHAR
STARTCHAR afii10109
ENCODING 1116
SWIDTH 500 0
DWIDTH 10 0
BBX 9 11 0 0
BITMAP
0C00
1800
0000
FF00
6600
6C00
7800
7C00
6600
6300
F780
ENDCHAR
STARTCHAR uni045D
ENCODING 1117
SWIDTH 500 0
DWIDTH 10 0
BBX 9 11 0 0
BITMAP
1800
0C00
0000
F380
6700
6F00
6F00
7B00
7B00
7300
6780
ENDCHAR
STARTCHAR afii10110
ENCODING 1118
SWIDTH 450 0
DWIDTH 9 0
BBX 8 15 0 -4
BITMAP
66
3C
00
FF
66
66
3C
3C
3C
18
18
30
30
60
C0
ENDCHAR
STARTCHAR afii10193
ENCODING 1119
SWIDTH 500 0
DWIDTH 10 0
BBX 9 10 0 -2
BITMAP
F780
6300
6300
6300
6300
6300
6300
FF80
0C00
0C00
ENDCHAR
STARTCHAR uni0460
ENCODING 1120
SWIDTH 750 0
DWIDTH 15 0
BBX 14 11 0 0
BITMAP
F7BC
6318
6318
3330
3330
3330
1FE0
1FE0
1FE0
0CC0
0CC0
ENDCHAR
STARTCHAR uni0461
ENCODING 1121
SWIDTH 550 0
DWIDTH 11 0
BBX 10 8 0 0
BITMAP
FFC0
6D80
6D80
3F00
3F00
3F00
1E00
1E00
ENDCHAR
STARTCHAR uni0462
ENCODING 1122
SWIDTH 500 0
DWIDTH 10 0
BBX 10 11 -1 0
BITMAP
7800
3000
FC00
FC00
3000
3F00
3180
30C0
30C0
3180
7F00
ENDCHAR
STARTCHAR uni0463
ENCODING 1123
SWIDTH 450 0
DWIDTH 9 0
BBX 9 8 -1 0
BITMAP
7800
3000
FC00
FF00
3180
3180
3180
7F00
ENDCHAR
STARTCHAR uni0464
ENCODING 1124
SWIDTH 650 0
DWIDTH 13 0
BBX 12 11 0 0
BITMAP
F3F0
6E70
6C30
7800
78C0
7FC0
78C0
7800
6C30
6E70
F3C0
ENDCHAR
STARTCHAR uni0465
ENCODING 1125
SWIDTH 600 0
DWIDTH 12 0
BBX 11 8 0 0
BITMAP
F7E0
6CE0
7B60
7F00
7B00
7860
6CC0
F780
ENDCHAR
STARTCHAR uni0466
ENCODING 1126
SWIDTH 550 0
DWIDTH 11 0
BBX 10 11 0 0
BITMAP
1C00
0C00
1E00
1E00
1E00
3300
3300
3F00
7F80
6D80
FFC0
ENDCHAR
STARTCHAR uni0467
ENCODING 1127
SWIDTH 450 0
DWIDTH 9 0
BBX 8 8 0 0
BITMAP
18
18
3C
3C
3C
7E
7E
FF
ENDCHAR
STARTCHAR uni0468
ENCODING 1128
SWIDTH 750 0
DWIDTH 15 0
BBX 14 11 0 0
BITMAP
F1C0
60C0
61E0
61E0
61E0
7F30
6330
63F0
67F8
66D8
FFFC
ENDCHAR
STARTCHAR uni0469
ENCODING 1129
SWIDTH 650 0
DWIDTH 13 0
BBX 12 8 0 0
BITMAP
F180
6180
63C0
7FC0
63C0
67E0
67E0
FFF0
ENDCHAR
STARTCHAR uni046A
ENCODING 1130
SWIDTH 650 0
DWIDTH 13 0
BBX 12 11 0 0
BITMAP
7FE0
30C0
1980
0F00
0600
1F80
36C0
6660
6660
6660
FFF0
ENDCHAR
STARTCHAR uni046B
ENCODING 1131
SWIDTH 650 0
DWIDTH 13 0
BBX 12 8 0 0
BITMAP
3FC0
1980
0F00
0600
3FC0
6660
6660
FFF0
ENDCHAR
STARTCHAR uni046C
ENCODING 1132
SWIDTH 850 0
DWIDTH 17 0
BBX 16 11 0 0
BITMAP
F7FE
630C
6198
60F0
6060
7FF8
636C
6666
6666
6666
FFFF
ENDCHAR
STARTCHAR uni046D
ENCODING 1133
SWIDTH 850 0
DWIDTH 17 0
BBX 16 8 0 0
BITMAP
F3FC
6198
60F0
6060
7FFC
6666
6666
FFFF
ENDCHAR
STARTCHAR uni046E
ENCODING 1134
SWIDTH 450 0
DWIDTH 9 0
BBX 8 18 0 -4
BITMAP
3C
18
00
FC
E6
C3
03
06
3C
06
03
03
06
7C
C0
C0
7C
06
ENDCHAR
STARTCHAR uni046F
ENCODING 1135
SWIDTH 400 0
DWIDTH 8 0
BBX 7 15 0 -4
BITMAP
6C
38
00
FC
E6
06
7C
06
06
06
7C
C0
C0
7C
06
ENDCHAR
STARTCHAR uni0470
ENCODING 1136
SWIDTH 550 0
DWIDTH 11 0
BBX 11 11 0 0
BITMAP
DE60
6CC0
6D80
6D80
3F00
1E00
0C00
0C00
0C00
0C00
1E00
ENDCHAR
STARTCHAR uni0471
ENCODING 1137
SWIDTH 550 0
DWIDTH 11 0
BBX 11 12 0 -4
BITMAP
CC60
6CC0
6CC0
6D80
6D80
6D80
3F00
1E00
0C00
0C00
0C00
0C00
ENDCHAR
STARTCHAR uni0472
ENCODING 1138
SWIDTH 550 0
DWIDTH 11 0
BBX 10 11 0 0
BITMAP
1E00
7380
6180
C0C0
F8C0
EDC0
C7C0
C0C0
6180
7380
1E00
ENDCHAR
STARTCHAR uni0473
ENCODING 1139
SWIDTH 450 0
DWIDTH 9 0
BBX 8 8 0 0
BITMAP
3C
66
C3
FF
FF
C3
66
3C
ENDCHAR
STARTCHAR uni0474
ENCODING 1140
SWIDTH 550 0
DWIDTH 11 0
BBX 11 11 0 0
BITMAP
F0C0
61E0
6180
3300
3300
3300
1E00
1E00
1E00
0C00
0C00
ENDCHAR
STARTCHAR uni0475
ENCODING 1141
SWIDTH 450 0
DWIDTH 9 0
BBX 9 8 0 0
BITMAP
F300
6780
6600
3C00
3C00
3C00
1800
1800
ENDCHAR
STARTCHAR uni0476
ENCODING 1142
SWIDTH 550 0
DWIDTH 11 0
BBX 11 14 0 0
BITMAP
3C00
1E00
0000
F0C0
61E0
6180
3300
3300
3300
1E00
1E00
1E00
0C00
0C00
ENDCHAR
STARTCHAR uni0477
ENCODING 1143
SWIDTH 450 0
DWIDTH 9 0
BBX 9 11 0 0
BITMAP
7800
3C00
0000
F300
6780
6600
3C00
3C00
3C00
1800
1800
ENDCHAR
STARTCHAR uni0478
ENCODING 1144
SWIDTH 900 0
DWIDTH 18 0
BBX 17 15 0 -4
BITMAP
1E0000
738000
618000
C0FF80
C0F300
C0F300
C0DE00
C0DE00
619E00
738C00
1E0C00
001800
001800
003000
006000
ENDCHAR
STARTCHAR uni0479
ENCODING 1145
SWIDTH 800 0
DWIDTH 16 0
BBX 15 12 0 -4
BITMAP
3DFE
66CC
C3CC
C378
C378
C378
6630
3C30
0060
0060
00C0
0180
ENDCHAR
STARTCHAR uni047A
ENCODING 1146
SWIDTH 600 0
DWIDTH 12 0
BBX 11 13 0 -1
BITMAP
0E00
1F00
7FC0
60C0
C060
C060
C060
C060
C060
60C0
7FC0
1F00
0E00
ENDCHAR
STARTCHAR uni047B
ENCODING 1147
SWIDTH 500 0
DWIDTH 10 0
BBX 9 10 0 -1
BITMAP
1C00
3E00
7F00
C180
C180
C180
C180
7F00
3E00
1C00
ENDCHAR
STARTCHAR uni047C
ENCODING 1148
SWIDTH 750 0
DWIDTH 15 0
BBX 14 14 0 0
BITMAP
00C0
0FC0
0C00
3030
6718
6318
C00C
C00C
C78C
C30C
C30C
6798
6798
3CF0
ENDCHAR
STARTCHAR uni047D
ENCODING 1149
SWIDTH 650 0
DWIDTH 13 0
BBX 12 12 0 0
BITMAP
0060
7FE0
6000
0E00
36C0
6060
C030
CF30
C630
C630
6F60
39C0
ENDCHAR
STARTCHAR uni047E
ENCODING 1150
SWIDTH 750 0
DWIDTH 15 0
BBX 14 14 0 0
BITMAP
1FE0
1B60
0000
F7BC
6318
6318
3330
3330
3330
1FE0
1FE0
1FE0
0CC0
0CC0
ENDCHAR
STARTCHAR uni047F
ENCODING 1151
SWIDTH 550 0
DWIDTH 11 0
BBX 10 11 0 0
BITMAP
7F80
6D80
0000
FFC0
6D80
6D80
3F00
3F00
3F00
1E00
1E00
ENDCHAR
STARTCHAR uni0480
ENCODING 1152
SWIDTH 500 0
DWIDTH 10 0
BBX 9 13 0 -2
BITMAP
1F80
7380
6180
C000
C000
C000
C000
C000
6000
7000
1E00
0600
0600
ENDCHAR
STARTCHAR uni0481
ENCODING 1153
SWIDTH 450 0
DWIDTH 9 0
BBX 8 10 0 -2
BITMAP
3F
67
C3
C0
C0
C0
60
3C
0C
0C
ENDCHAR
STARTCHAR uni2000
ENCODING 8192
SWIDTH 550 0
DWIDTH 11 0
BBX 1 1 0 0
BITMAP
00
ENDCHAR
STARTCHAR uni2001
ENCODING 8193
SWIDTH 1050 0
DWIDTH 21 0
BBX 1 1 0 0
BITMAP
00
ENDCHAR
STARTCHAR uni2002
ENCODING 8194
SWIDTH 550 0
DWIDTH 11 0
BBX 1 1 0 0
BITMAP
00
ENDCHAR
STARTCHAR uni2003
ENCODING 8195
SWIDTH 1050 0
DWIDTH 21 0
BBX 1 1 0 0
BITMAP
00
ENDCHAR
STARTCHAR uni2004
ENCODING 8196
SWIDTH 400 0
DWIDTH 8 0
BBX 1 1 0 0
BITMAP
00
ENDCHAR
STARTCHAR uni2005
ENCODING 8197
SWIDTH 300 0
DWIDTH 6 0
BBX 1 1 0 0
BITMAP
00
ENDCHAR
STARTCHAR uni2006
ENCODING 8198
SWIDTH 200 0
DWIDTH 4 0
BBX 1 1 0 0
BITMAP
00
ENDCHAR
STARTCHAR uni2007
ENCODING 8199
SWIDTH 450 0
DWIDTH 9 0
BBX 1 1 0 0
BITMAP
00
ENDCHAR
STARTCHAR uni2008
ENCODING 8200
SWIDTH 250 0
DWIDTH 5 0
BBX 1 1 0 0
BITMAP
00
ENDCHAR
STARTCHAR uni2009
ENCODING 8201
SWIDTH 200 0
DWIDTH 4 0
BBX 1 1 0 0
BITMAP
00
ENDCHAR
STARTCHAR uni200A
ENCODING 8202
SWIDTH 100 0
DWIDTH 2 0
BBX 1 1 0 0
BITMAP
00
ENDCHAR
STARTCHAR uni200B
ENCODING 8203
SWIDTH 0 0
DWIDTH 0 0
BBX 1 1 0 0
BITMAP
00
ENDCHAR
STARTCHAR uni200C
ENCODING 8204
SWIDTH 0 0
DWIDTH 0 0
BBX 1 1 0 0
BITMAP
00
ENDCHAR
STARTCHAR uni200D
ENCODING 8205
SWIDTH 0 0
DWIDTH 0 0
BBX 1 1 0 0
BITMAP
00
ENDCHAR
STARTCHAR uni200E
ENCODING 8206
SWIDTH 0 0
DWIDTH 0 0
BBX 1 1 0 0
BITMAP
00
ENDCHAR
STARTCHAR uni200F
ENCODING 8207
SWIDTH 0 0
DWIDTH 0 0
BBX 1 1 0 0
BITMAP
00
ENDCHAR
STARTCHAR uni2010
ENCODING 8208
SWIDTH 400 0
DWIDTH 8 0
BBX 7 1 0 4
BITMAP
FE
ENDCHAR
STARTCHAR uni2011
ENCODING 8209
SWIDTH 400 0
DWIDTH 8 0
BBX 7 1 0 4
BITMAP
FE
ENDCHAR
STARTCHAR uni2012
ENCODING 8210
SWIDTH 450 0
DWIDTH 9 0
BBX 8 1 0 4
BITMAP
FF
ENDCHAR
STARTCHAR endash
ENCODING 8211
SWIDTH 450 0
DWIDTH 9 0
BBX 8 1 0 4
BITMAP
FF
ENDCHAR
STARTCHAR emdash
ENCODING 8212
SWIDTH 700 0
DWIDTH 14 0
BBX 13 1 0 4
BITMAP
FFF8
ENDCHAR
STARTCHAR afii00208
ENCODING 8213
SWIDTH 700 0
DWIDTH 14 0
BBX 13 1 0 4
BITMAP
FFF8
ENDCHAR
STARTCHAR uni2016
ENCODING 8214
SWIDTH 250 0
DWIDTH 5 0
BBX 4 15 0 -3
BITMAP
F0
F0
F0
F0
F0
F0
F0
F0
F0
F0
F0
F0
F0
F0
F0
ENDCHAR
STARTCHAR underscoredbl
ENCODING 8215
SWIDTH 450 0
DWIDTH 9 0
BBX 8 3 0 -3
BITMAP
FF
00
FF
ENDCHAR
STARTCHAR quoteleft
ENCODING 8216
SWIDTH 200 0
DWIDTH 4 0
BBX 3 4 0 8
BITMAP
60
C0
E0
E0
ENDCHAR
STARTCHAR quoteright
ENCODING 8217
SWIDTH 200 0
DWIDTH 4 0
BBX 3 4 0 8
BITMAP
E0
E0
60
C0
ENDCHAR
STARTCHAR quotesinglbase
ENCODING 8218
SWIDTH 200 0
DWIDTH 4 0
BBX 3 4 0 -2
BITMAP
E0
E0
60
C0
ENDCHAR
STARTCHAR quotereversed
ENCODING 8219
SWIDTH 200 0
DWIDTH 4 0
BBX 3 4 0 8
BITMAP
E0
E0
C0
60
ENDCHAR
STARTCHAR quotedblleft
ENCODING 8220
SWIDTH 350 0
DWIDTH 7 0
BBX 6 4 0 8
BITMAP
6C
D8
FC
FC
ENDCHAR
STARTCHAR quotedblright
ENCODING 8221
SWIDTH 350 0
DWIDTH 7 0
BBX 6 4 0 8
BITMAP
FC
FC
6C
D8
ENDCHAR
STARTCHAR quotedblbase
ENCODING 8222
SWIDTH 350 0
DWIDTH 7 0
BBX 6 4 0 -2
BITMAP
FC
FC
6C
D8
ENDCHAR
STARTCHAR uni201F
ENCODING 8223
SWIDTH 350 0
DWIDTH 7 0
BBX 6 4 0 8
BITMAP
FC
FC
D8
6C
ENDCHAR
STARTCHAR dagger
ENCODING 8224
SWIDTH 350 0
DWIDTH 7 0
BBX 6 7 0 5
BITMAP
30
30
FC
30
30
30
30
ENDCHAR
STARTCHAR daggerdbl
ENCODING 8225
SWIDTH 350 0
DWIDTH 7 0
BBX 6 8 0 4
BITMAP
30
30
FC
30
30
FC
30
30
ENDCHAR
STARTCHAR bullet
ENCODING 8226
SWIDTH 350 0
DWIDTH 7 0
BBX 6 5 0 3
BITMAP
78
FC
FC
FC
78
ENDCHAR
STARTCHAR uni2023
ENCODING 8227
SWIDTH 350 0
DWIDTH 7 0
BBX 6 5 0 3
BITMAP
C0
F0
FC
F0
C0
ENDCHAR
STARTCHAR uni2024
ENCODING 8228
SWIDTH 250 0
DWIDTH 5 0
BBX 2 2 1 0
BITMAP
C0
C0
ENDCHAR
STARTCHAR uni2025
ENCODING 8229
SWIDTH 400 0
DWIDTH 8 0
BBX 5 2 1 0
BITMAP
D8
D8
ENDCHAR
STARTCHAR ellipsis
ENCODING 8230
SWIDTH 550 0
DWIDTH 11 0
BBX 8 2 1 0
BITMAP
DB
DB
ENDCHAR
STARTCHAR uni2027
ENCODING 8231
SWIDTH 150 0
DWIDTH 3 0
BBX 2 2 0 5
BITMAP
C0
C0
ENDCHAR
STARTCHAR perthousand
ENCODING 8240
SWIDTH 700 0
DWIDTH 14 0
BBX 13 11 0 0
BITMAP
7F00
DB00
DE00
DE00
7C00
0C00
0FF0
1ED8
1ED8
36D8
33F0
ENDCHAR
STARTCHAR uni2031
ENCODING 8241
SWIDTH 850 0
DWIDTH 17 0
BBX 16 11 0 0
BITMAP
7F00
DB00
DE00
DE00
7C00
0C00
0FFE
1EDB
1EDB
36DB
33FE
ENDCHAR
STARTCHAR guilsinglleft
ENCODING 8249
SWIDTH 300 0
DWIDTH 6 0
BBX 5 7 0 1
BITMAP
18
30
60
C0
60
30
18
ENDCHAR
STARTCHAR guilsinglright
ENCODING 8250
SWIDTH 300 0
DWIDTH 6 0
BBX 5 7 0 1
BITMAP
C0
60
30
18
30
60
C0
ENDCHAR
STARTCHAR exclamdbl
ENCODING 8252
SWIDTH 250 0
DWIDTH 5 0
BBX 4 11 0 0
BITMAP
F0
F0
F0
F0
F0
F0
F0
F0
00
F0
F0
ENDCHAR
STARTCHAR uni203D
ENCODING 8253
SWIDTH 450 0
DWIDTH 9 0
BBX 8 12 0 0
BITMAP
18
3C
7E
DB
1B
1E
1C
18
18
00
18
18
ENDCHAR
STARTCHAR fraction
ENCODING 8260
SWIDTH 250 0
DWIDTH 5 0
BBX 12 11 -4 0
BITMAP
0030
0060
00C0
0180
0300
0600
0C00
1800
3000
6000
C000
ENDCHAR
STARTCHAR uni2047
ENCODING 8263
SWIDTH 850 0
DWIDTH 17 0
BBX 16 11 0 0
BITMAP
3C3C
6666
C3C3
0303
0606
0C0C
1818
1818
0000
1818
1818
ENDCHAR
STARTCHAR uni2048
ENCODING 8264
SWIDTH 550 0
DWIDTH 11 0
BBX 10 11 0 0
BITMAP
3CC0
66C0
C3C0
03C0
06C0
0CC0
18C0
18C0
0000
18C0
18C0
ENDCHAR
STARTCHAR uni2049
ENCODING 8265
SWIDTH 550 0
DWIDTH 11 0
BBX 10 11 0 0
BITMAP
CF00
D980
F0C0
C0C0
C180
C300
C600
C600
0000
C600
C600
ENDCHAR
STARTCHAR Euro
ENCODING 8364
SWIDTH 600 0
DWIDTH 12 0
BBX 11 11 0 0
BITMAP
07E0
1CE0
1860
3000
FC00
3000
FC00
3000
1860
1CE0
0780
ENDCHAR
STARTCHAR uni2117
ENCODING 8471
SWIDTH 650 0
DWIDTH 13 0
BBX 12 11 0 0
BITMAP
0F00
39C0
6060
7F60
D9B0
DF30
D830
7860
6060
39C0
0F00
ENDCHAR
STARTCHAR uni2120
ENCODING 8480
SWIDTH 550 0
DWIDTH 11 0
BBX 10 4 0 8
BITMAP
7CC0
EFC0
3FC0
ECC0
ENDCHAR
STARTCHAR trademark
ENCODING 8482
SWIDTH 550 0
DWIDTH 11 0
BBX 10 4 0 8
BITMAP
FCC0
6FC0
6FC0
6CC0
ENDCHAR
STARTCHAR Omega
ENCODING 8486
SWIDTH 600 0
DWIDTH 12 0
BBX 11 11 0 0
BITMAP
1F00
71C0
60C0
C060
C060
C060
60C0
71C0
1B00
DB60
FBE0
ENDCHAR
STARTCHAR uni2127
ENCODING 8487
SWIDTH 600 0
DWIDTH 12 0
BBX 11 11 0 0
BITMAP
FBE0
DB60
1B00
71C0
60C0
C060
C060
C060
60C0
71C0
1F00
ENDCHAR
STARTCHAR uni21E7
ENCODING 8679
SWIDTH 550 0
DWIDTH 11 0
BBX 10 11 0 0
BITMAP
0C00
1E00
3300
6180
F3C0
3300
3300
3300
3300
3300
3F00
ENDCHAR
STARTCHAR uni2200
ENCODING 8704
SWIDTH 550 0
DWIDTH 11 0
BBX 10 11 0 0
BITMAP
F3C0
6180
6180
3300
3F00
3300
1E00
1E00
1E00
0C00
1C00
ENDCHAR
STARTCHAR uni2201
ENCODING 8705
SWIDTH 400 0
DWIDTH 8 0
BBX 7 11 0 0
BITMAP
3E
6E
66
C0
C0
C0
C0
C0
60
66
3C
ENDCHAR
STARTCHAR partialdiff
ENCODING 8706
SWIDTH 450 0
DWIDTH 9 0
BBX 8 12 0 0
BITMAP
38
0C
06
03
1F
37
63
C3
C3
C6
6C
38
ENDCHAR
STARTCHAR uni2203
ENCODING 8707
SWIDTH 500 0
DWIDTH 10 0
BBX 9 11 0 0
BITMAP
FF80
C300
0300
0300
3300
3F00
3300
0300
0300
C300
FF80
ENDCHAR
STARTCHAR uni2204
ENCODING 8708
SWIDTH 500 0
DWIDTH 10 0
BBX 9 15 0 -2
BITMAP
0600
0600
FF80
CF00
0F00
0F00
3B00
3F00
3B00
3300
3300
F300
FF80
6000
6000
ENDCHAR
STARTCHAR uni2205
ENCODING 8709
SWIDTH 650 0
DWIDTH 13 0
BBX 12 11 0 0
BITMAP
1FB0
30E0
60E0
C1B0
C330
C630
CC30
D830
7060
70C0
DF80
ENDCHAR
STARTCHAR Delta
ENCODING 8710
SWIDTH 550 0
DWIDTH 11 0
BBX 10 11 0 0
BITMAP
0C00
0C00
0C00
1E00
1E00
3300
3300
6180
6180
C0C0
FFC0
ENDCHAR
STARTCHAR uni2207
ENCODING 8711
SWIDTH 550 0
DWIDTH 11 0
BBX 10 11 0 0
BITMAP
FFC0
C0C0
6180
6180
3300
3300
1E00
1E00
0C00
0C00
0C00
ENDCHAR
STARTCHAR uni2208
ENCODING 8712
SWIDTH 450 0
DWIDTH 9 0
BBX 8 11 0 0
BITMAP
1F
30
60
C0
C0
FF
C0
C0
60
30
1F
ENDCHAR
STARTCHAR uni2209
ENCODING 8713
SWIDTH 450 0
DWIDTH 9 0
BBX 8 15 0 -2
BITMAP
06
06
1F
3C
6C
CC
D8
FF
D8
F0
70
30
7F
60
60
ENDCHAR
STARTCHAR uni220A
ENCODING 8714
SWIDTH 350 0
DWIDTH 7 0
BBX 6 8 0 0
BITMAP
3C
60
C0
FC
C0
C0
60
3C
ENDCHAR
STARTCHAR uni220B
ENCODING 8715
SWIDTH 450 0
DWIDTH 9 0
BBX 8 11 0 0
BITMAP
F8
0C
06
03
03
FF
03
03
06
0C
F8
ENDCHAR
STARTCHAR uni220C
ENCODING 8716
SWIDTH 450 0
DWIDTH 9 0
BBX 8 15 0 -2
BITMAP
06
06
FE
0C
0E
0F
1B
FF
1B
33
36
3C
F8
60
60
ENDCHAR
STARTCHAR uni220D
ENCODING 8717
SWIDTH 350 0
DWIDTH 7 0
BBX 6 8 0 0
BITMAP
F0
18
0C
FC
0C
0C
18
F0
ENDCHAR
STARTCHAR product
ENCODING 8719
SWIDTH 600 0
DWIDTH 12 0
BBX 11 15 0 -3
BITMAP
FFE0
60C0
60C0
60C0
60C0
60C0
60C0
60C0
60C0
60C0
60C0
60C0
60C0
60C0
F1E0
ENDCHAR
STARTCHAR uni2210
ENCODING 8720
SWIDTH 600 0
DWIDTH 12 0
BBX 11 15 0 -3
BITMAP
F1E0
60C0
60C0
60C0
60C0
60C0
60C0
60C0
60C0
60C0
60C0
60C0
60C0
60C0
FFE0
ENDCHAR
STARTCHAR summation
ENCODING 8721
SWIDTH 600 0
DWIDTH 12 0
BBX 11 15 0 -3
BITMAP
FFE0
6060
6000
3000
3000
1800
1800
0C00
1800
1800
3000
3000
6000
6060
FFE0
ENDCHAR
STARTCHAR radical
ENCODING 8730
SWIDTH 550 0
DWIDTH 11 0
BBX 10 12 0 0
BITMAP
00C0
00C0
0180
0180
0300
0300
E600
6600
3C00
3C00
1800
1800
ENDCHAR
STARTCHAR uni221B
ENCODING 8731
SWIDTH 550 0
DWIDTH 11 0
BBX 10 13 0 0
BITMAP
7800
CCC0
38C0
0D80
CD80
7B00
0300
E600
6600
3C00
3C00
1800
1800
ENDCHAR
STARTCHAR uni221C
ENCODING 8732
SWIDTH 550 0
DWIDTH 11 0
BBX 10 13 0 0
BITMAP
1800
38C0
78C0
FD80
1980
1B00
0300
E600
6600
3C00
3C00
1800
1800
ENDCHAR
STARTCHAR uni221D
ENCODING 8733
SWIDTH 500 0
DWIDTH 10 0
BBX 9 5 0 3
BITMAP
7380
DE00
CC00
DE00
7380
ENDCHAR
STARTCHAR infinity
ENCODING 8734
SWIDTH 550 0
DWIDTH 11 0
BBX 10 5 0 3
BITMAP
7380
DEC0
CCC0
DEC0
7380
ENDCHAR
STARTCHAR integral
ENCODING 8747
SWIDTH 350 0
DWIDTH 7 0
BBX 8 15 -1 -3
BITMAP
0E
1B
18
18
18
18
18
18
18
18
18
18
18
D8
70
ENDCHAR
STARTCHAR uni222C
ENCODING 8748
SWIDTH 600 0
DWIDTH 12 0
BBX 13 15 -1 -3
BITMAP
0E70
1BD8
18C0
18C0
18C0
18C0
18C0
18C0
18C0
18C0
18C0
18C0
18C0
DEC0
7380
ENDCHAR
STARTCHAR uni222D
ENCODING 8749
SWIDTH 850 0
DWIDTH 17 0
BBX 18 15 -1 -3
BITMAP
0E7380
1BDEC0
18C600
18C600
18C600
18C600
18C600
18C600
18C600
18C600
18C600
18C600
18C600
DEF600
739C00
ENDCHAR
STARTCHAR approxequal
ENCODING 8776
SWIDTH 400 0
DWIDTH 8 0
BBX 7 5 0 2
BITMAP
76
DC
00
76
DC
ENDCHAR
STARTCHAR uni2249
ENCODING 8777
SWIDTH 400 0
DWIDTH 8 0
BBX 7 11 0 -1
BITMAP
0C
0C
18
7E
DC
30
76
FC
30
60
60
ENDCHAR
STARTCHAR notequal
ENCODING 8800
SWIDTH 450 0
DWIDTH 9 0
BBX 8 7 0 1
BITMAP
0C
0C
FF
18
FF
30
30
ENDCHAR
STARTCHAR equivalence
ENCODING 8801
SWIDTH 400 0
DWIDTH 8 0
BBX 7 5 0 2
BITMAP
FE
00
FE
00
FE
ENDCHAR
STARTCHAR uni2262
ENCODING 8802
SWIDTH 400 0
DWIDTH 8 0
BBX 7 9 0 0
BITMAP
0C
0C
FE
18
FE
30
FE
60
60
ENDCHAR
STARTCHAR uni2263
ENCODING 8803
SWIDTH 400 0
DWIDTH 8 0
BBX 7 7 0 1
BITMAP
FE
00
FE
00
FE
00
FE
ENDCHAR
STARTCHAR lessequal
ENCODING 8804
SWIDTH 300 0
DWIDTH 6 0
BBX 5 9 0 0
BITMAP
18
30
60
C0
60
30
18
00
F8
ENDCHAR
STARTCHAR greaterequal
ENCODING 8805
SWIDTH 300 0
DWIDTH 6 0
BBX 5 9 0 0
BITMAP
C0
60
30
18
30
60
C0
00
F8
ENDCHAR
STARTCHAR uni2303
ENCODING 8963
SWIDTH 450 0
DWIDTH 9 0
BBX 8 4 0 7
BITMAP
18
3C
66
C3
ENDCHAR
STARTCHAR uni2318
ENCODING 8984
SWIDTH 650 0
DWIDTH 13 0
BBX 12 11 0 0
BITMAP
70E0
D9B0
D9B0
7FE0
1980
1980
1980
7FE0
D9B0
D9B0
70E0
ENDCHAR
STARTCHAR uni2325
ENCODING 8997
SWIDTH 700 0
DWIDTH 14 0
BBX 13 11 0 0
BITMAP
F8F8
1800
0C00
0C00
0600
0600
0300
0300
0180
0180
00F8
ENDCHAR
STARTCHAR lozenge
ENCODING 9674
SWIDTH 350 0
DWIDTH 7 0
BBX 6 9 0 1
BITMAP
30
30
78
78
CC
78
78
30
30
ENDCHAR
STARTCHAR uni2661
ENCODING 9825
SWIDTH 750 0
DWIDTH 15 0
BBX 14 11 0 0
BITMAP
3CF0
6798
C30C
C00C
C00C
6018
3030
1860
0CC0
0780
0300
ENDCHAR
STARTCHAR heart
ENCODING 9829
SWIDTH 750 0
DWIDTH 15 0
BBX 14 11 0 0
BITMAP
3CF0
7FF8
FFFC
FFFC
FFFC
7FF8
3FF0
1FE0
0FC0
0780
0300
ENDCHAR
STARTCHAR uniF600
ENCODING 62976
SWIDTH 1150 0
DWIDTH 23 0
BBX 24 12 0 0
BITMAP
000003
00060E
3C0018
660C18
60CF18
39EF98
61DBF0
C3DBF0
C37E70
CC6630
7E3600
3C1800
ENDCHAR
STARTCHAR uniF601
ENCODING 62977
SWIDTH 1400 0
DWIDTH 28 0
BBX 27 13 0 -2
BITMAP
03803800
0EE0EE00
383B8380
E00E00E0
383B8380
0EE0EE00
03803800
0EE0EE00
383B8380
E00E00E0
383B8380
0EE0EE00
03803800
ENDCHAR
STARTCHAR uniF602
ENCODING 62978
SWIDTH 800 0
DWIDTH 16 0
BBX 15 14 0 -2
BITMAP
0380
0EE0
3838
E00E
F83E
CEE6
C386
C186
C186
C186
E18E
39B8
0FE0
0380
ENDCHAR
STARTCHAR uniF603
ENCODING 62979
SWIDTH 1000 0
DWIDTH 20 0
BBX 19 15 0 -2
BITMAP
00E000
03B800
0E0E00
0FBE00
0CE600
0C6600
0E6E00
3BFB80
E0E0E0
FBFBE0
CE6E60
C66660
E6E6E0
3FBF80
0E0E00
ENDCHAR
STARTCHAR uniF604
ENCODING 62980
SWIDTH 800 0
DWIDTH 16 0
BBX 15 14 0 -2
BITMAP
0380
0FE0
3FF8
FFFE
FFFE
FFFE
FFFE
FFFE
FFFE
FFFE
FFFE
3FF8
0FE0
0380
ENDCHAR
STARTCHAR uniF605
ENCODING 62981
SWIDTH 800 0
DWIDTH 16 0
BBX 13 12 1 -1
BITMAP
0700
1FC0
7FF0
DFD8
F778
FDF8
FFF8
FFF8
FFF8
7FF0
1FC0
0600
ENDCHAR
STARTCHAR uniF606
ENCODING 62982
SWIDTH 850 0
DWIDTH 17 0
BBX 16 14 0 -2
BITMAP
0180
03C0
07E0
0180
0180
0180
0180
0180
0180
0180
07E0
DC3B
F00F
F81F
ENDCHAR
STARTCHAR uniF607
ENCODING 62983
SWIDTH 900 0
DWIDTH 18 0
BBX 17 15 0 -3
BITMAP
1B0000
3F8000
318000
6F0300
C30380
C18780
79FD80
1CF980
1C0300
1C0300
19F300
1B1B00
1B1B00
333300
3E3E00
ENDCHAR
STARTCHAR uniF608
ENCODING 62984
SWIDTH 1250 0
DWIDTH 25 0
BBX 25 20 0 -6
BITMAP
FFFFFF80
FFFFFF80
FFFFFF80
FFFFFF80
FFFFFF80
FFFFFF80
FFFFFF80
FFFFFF80
FFFFFF80
FFFFFF80
FFFFFF80
FFFFFF80
FFFFFF80
FFFFFF80
FFFFFF80
FFFFFF80
FFFFFF80
FFFFFF80
FFFFFF80
FFFFFF80
ENDCHAR
STARTCHAR uniF609
ENCODING 62985
SWIDTH 1250 0
DWIDTH 25 0
BBX 25 20 0 -6
BITMAP
FFFFFF80
FFFFFF80
FFFFFF80
FFFFFF80
FFFFFF80
FFFFFF80
FFFFFF80
FFFFFF80
FFFFFF80
FFFFFF80
FFFFFF80
FFFFFF80
FFFFFF80
FFFFFF80
FFFFFF80
FFFFFF80
FFFFFF80
FFFFFF80
FFFFFF80
FFFFFF80
ENDCHAR
STARTCHAR uniF60A
ENCODING 62986
SWIDTH 850 0
DWIDTH 17 0
BBX 17 20 0 -6
BITMAP
C03F80
DFBF80
F6FF80
FFFF80
DFBF80
FFFF80
F6FF80
FFFF80
DFBF80
FFFF80
F6FF80
FFFF80
DFBF80
FFFF80
F6FF80
FFFF80
DFBF80
FFFF80
F6FF80
DFBF80
ENDCHAR
STARTCHAR uniF60B
ENCODING 62987
SWIDTH 850 0
DWIDTH 17 0
BBX 17 20 0 -6
BITMAP
FE0180
FEFD80
FFB780
FFFF80
FEFD80
FFFF80
FFB780
FFFF80
FEFD80
FFFF80
FFB780
FFFF80
FEFD80
FFFF80
FFB780
FFFF80
FEFD80
FFFF80
FFB780
FEFD80
ENDCHAR
STARTCHAR uniF60C
ENCODING 62988
SWIDTH 1250 0
DWIDTH 25 0
BBX 18 20 1 -6
BITMAP
FD98C0
FD98C0
FD98C0
FD98C0
FD98C0
FD98C0
FD98C0
FD98C0
FD98C0
FD98C0
FD98C0
FD98C0
FD98C0
FD98C0
FD98C0
FD98C0
FD98C0
FD98C0
FD98C0
FD98C0
ENDCHAR
STARTCHAR uniF60D
ENCODING 62989
SWIDTH 1250 0
DWIDTH 25 0
BBX 18 20 6 -6
BITMAP
C66FC0
C66FC0
C66FC0
C66FC0
C66FC0
C66FC0
C66FC0
C66FC0
C66FC0
C66FC0
C66FC0
C66FC0
C66FC0
C66FC0
C66FC0
C66FC0
C66FC0
C66FC0
C66FC0
C66FC0
ENDCHAR
STARTCHAR uniF60E
ENCODING 62990
SWIDTH 850 0
DWIDTH 17 0
BBX 10 20 1 -6
BITMAP
FFC0
EDC0
FFC0
FFC0
FFC0
FFC0
FFC0
FFC0
FFC0
FFC0
FFC0
FFC0
FFC0
FFC0
FFC0
FFC0
FFC0
FFC0
FFC0
EDC0
ENDCHAR
STARTCHAR uniF60F
ENCODING 62991
SWIDTH 850 0
DWIDTH 17 0
BBX 10 20 6 -6
BITMAP
FFC0
EDC0
FFC0
FFC0
FFC0
FFC0
FFC0
FFC0
FFC0
FFC0
FFC0
FFC0
FFC0
FFC0
FFC0
FFC0
FFC0
FFC0
FFC0
EDC0
ENDCHAR
STARTCHAR uniF610
ENCODING 62992
SWIDTH 850 0
DWIDTH 17 0
BBX 16 11 0 0
BITMAP
FFFF
DBDB
1818
1818
1818
1818
1818
1818
1818
1818
3C3C
ENDCHAR
STARTCHAR uniF611
ENCODING 62993
SWIDTH 450 0
DWIDTH 9 0
BBX 9 12 0 0
BITMAP
6600
6600
6600
6600
FF00
6600
6600
6600
6600
6600
6600
3B80
ENDCHAR
STARTCHAR uniF700
ENCODING 63232
SWIDTH 500 0
DWIDTH 10 0
BBX 9 14 0 0
BITMAP
3B00
6E00
0000
F780
6300
6600
6C00
7800
7C00
6600
6600
6300
6300
F780
ENDCHAR
STARTCHAR uniF701
ENCODING 63233
SWIDTH 500 0
DWIDTH 10 0
BBX 9 14 0 0
BITMAP
3B00
6E00
0000
E000
6000
6000
6F00
6600
6C00
7800
7C00
6600
6300
F780
ENDCHAR
STARTCHAR uniF702
ENCODING 63234
SWIDTH 800 0
DWIDTH 16 0
BBX 15 11 0 0
BITMAP
F3C0
6180
6180
6180
6180
6180
6180
6180
6180
6186
FFFE
ENDCHAR
STARTCHAR uniF703
ENCODING 63235
SWIDTH 400 0
DWIDTH 8 0
BBX 7 12 0 0
BITMAP
FC
6C
6C
6C
6C
6C
6C
6C
6C
6C
6C
FE
ENDCHAR
STARTCHAR uniF704
ENCODING 63236
SWIDTH 650 0
DWIDTH 13 0
BBX 12 14 0 0
BITMAP
1EC0
3780
0000
E070
70E0
79E0
6F60
6660
6660
6060
6060
6060
6060
F0F0
ENDCHAR
STARTCHAR uniF705
ENCODING 63237
SWIDTH 750 0
DWIDTH 15 0
BBX 14 11 0 0
BITMAP
1E60
33C0
0000
FCE0
77B0
6318
6318
6318
6318
6318
F7BC
ENDCHAR
STARTCHAR uniF706
ENCODING 63238
SWIDTH 950 0
DWIDTH 19 0
BBX 18 11 0 0
BITMAP
1FF3C0
73E180
61E180
C06180
C06180
C07F80
C06180
C06180
61E180
73E180
1EF3C0
ENDCHAR
STARTCHAR uniF707
ENCODING 63239
SWIDTH 850 0
DWIDTH 17 0
BBX 16 12 0 0
BITMAP
01C0
00C0
00C0
00C0
3FF8
67EC
C3C6
C0C6
C0C6
C3C6
66C6
3DEF
ENDCHAR
STARTCHAR uniF708
ENCODING 63240
SWIDTH 900 0
DWIDTH 18 0
BBX 17 11 0 0
BITMAP
3FE780
67C300
C3C300
C0C300
60C300
3CFF00
06C300
03C300
C3C300
E6C300
FDE780
ENDCHAR
STARTCHAR uniF709
ENCODING 63241
SWIDTH 800 0
DWIDTH 16 0
BBX 15 12 0 0
BITMAP
0380
0180
0180
0180
7FF0
CFD8
C78C
718C
1D8C
C78C
E78C
FFDE
ENDCHAR
STARTCHAR uniF70A
ENCODING 63242
SWIDTH 900 0
DWIDTH 18 0
BBX 17 11 0 0
BITMAP
FFE780
DBC300
18C300
18C300
18C300
18FF00
18C300
18C300
18C300
18C300
3DE780
ENDCHAR
STARTCHAR uniF70B
ENCODING 63243
SWIDTH 700 0
DWIDTH 14 0
BBX 13 12 0 0
BITMAP
6E00
6600
6600
6600
F7C0
6760
6630
6630
6630
6630
6630
3F78
ENDCHAR
STARTCHAR uniF70C
ENCODING 63244
SWIDTH 550 0
DWIDTH 11 0
BBX 10 11 0 0
BITMAP
F380
6180
6180
6180
6180
6180
6180
6180
6180
6180
FFC0
ENDCHAR
STARTCHAR uniF70D
ENCODING 63245
SWIDTH 900 0
DWIDTH 18 0
BBX 17 11 0 0
BITMAP
1FE000
73E000
61E000
C07C00
C07600
C06300
C06300
C06300
61E300
73E300
1EF780
ENDCHAR
STARTCHAR uniF70E
ENCODING 63246
SWIDTH 850 0
DWIDTH 17 0
BBX 16 11 0 0
BITMAP
3FC0
67C0
C3C0
C0F8
60EC
3CC6
06C6
03C6
C3C6
E6C6
FDEF
ENDCHAR
STARTCHAR uniF70F
ENCODING 63247
SWIDTH 850 0
DWIDTH 17 0
BBX 16 11 0 0
BITMAP
FFC0
DBC0
18C0
18F8
18EC
18C6
18C6
18C6
18C6
18C6
3DEF
ENDCHAR
STARTCHAR uniF710
ENCODING 63248
SWIDTH 1050 0
DWIDTH 21 0
BBX 20 11 0 0
BITMAP
3180F0
318180
330300
36DD80
6CF6C0
79E6C0
6DEC60
C7B860
C60060
C300C0
C1CF80
ENDCHAR
STARTCHAR uniF711
ENCODING 63249
SWIDTH 550 0
DWIDTH 11 0
BBX 10 11 0 0
BITMAP
D800
F000
E000
F000
D800
0000
06C0
0780
0700
0780
06C0
ENDCHAR
STARTCHAR uniF712
ENCODING 63250
SWIDTH 800 0
DWIDTH 16 0
BBX 15 11 0 0
BITMAP
D800
F000
E000
F7C0
DE00
0780
061E
07F0
001C
0006
003C
ENDCHAR
STARTCHAR uniF713
ENCODING 63251
SWIDTH 550 0
DWIDTH 11 0
BBX 10 11 0 0
BITMAP
D800
F000
E000
F000
D800
0000
03C0
0600
0380
00C0
0780
ENDCHAR
STARTCHAR uniF714
ENCODING 63252
SWIDTH 600 0
DWIDTH 12 0
BBX 11 11 0 0
BITMAP
7800
C000
F800
DB80
7E00
0600
07E0
1CC0
00C0
00C0
01E0
ENDCHAR
STARTCHAR uniF715
ENCODING 63253
SWIDTH 650 0
DWIDTH 13 0
BBX 8 7 2 2
BITMAP
FF
7E
FF
7E
FF
7E
FF
ENDCHAR
STARTCHAR uniF71C
ENCODING 63260
SWIDTH 500 0
DWIDTH 10 0
BBX 15 13 -6 -5
BITMAP
00FE
019C
030C
030C
030C
030C
019C
00FC
000C
0018
0070
7FC0
C000
ENDCHAR
STARTCHAR uniF71D
ENCODING 63261
SWIDTH 200 0
DWIDTH 4 0
BBX 13 17 -10 -5
BITMAP
0018
0018
0000
0000
0038
0018
0018
0018
0018
0018
0018
0018
0018
0030
00E0
7F80
C000
ENDCHAR
STARTCHAR uniF71E
ENCODING 63262
SWIDTH 400 0
DWIDTH 8 0
BBX 15 11 -8 -3
BITMAP
007E
00CE
00C6
0070
001C
0006
0006
000C
0038
7FE0
C000
ENDCHAR
STARTCHAR uniF71F
ENCODING 63263
SWIDTH 450 0
DWIDTH 9 0
BBX 17 13 -9 -5
BITMAP
007F80
003300
003300
001E00
001E00
001E00
000C00
000C00
001800
003000
00E000
7F8000
C00000
ENDCHAR
STARTCHAR uniFB00
ENCODING 64256
SWIDTH 450 0
DWIDTH 9 0
BBX 10 12 0 0
BITMAP
1DC0
3300
6600
6600
FF00
6600
6600
6600
6600
6600
6600
FF00
ENDCHAR
STARTCHAR fi
ENCODING 64257
SWIDTH 450 0
DWIDTH 9 0
BBX 8 12 0 0
BITMAP
1C
30
60
60
FE
66
66
66
66
66
66
FF
ENDCHAR
STARTCHAR fl
ENCODING 64258
SWIDTH 450 0
DWIDTH 9 0
BBX 8 12 0 0
BITMAP
1E
36
66
66
F6
66
66
66
66
66
66
FF
ENDCHAR
STARTCHAR uniFB03
ENCODING 64259
SWIDTH 650 0
DWIDTH 13 0
BBX 12 12 0 0
BITMAP
1DC0
3300
6600
6600
FFE0
6660
6660
6660
6660
6660
6660
FFF0
ENDCHAR
STARTCHAR uniFB04
ENCODING 64260
SWIDTH 650 0
DWIDTH 13 0
BBX 12 12 0 0
BITMAP
1DE0
3360
6660
6660
FF60
6660
6660
6660
6660
6660
6660
FFF0
ENDCHAR
STARTCHAR uniFB05
ENCODING 64261
SWIDTH 450 0
DWIDTH 9 0
BBX 9 12 0 0
BITMAP
1E00
3600
6600
6600
EF00
6600
6600
6600
6600
6600
6600
F380
ENDCHAR
STARTCHAR uniFB06
ENCODING 64262
SWIDTH 600 0
DWIDTH 12 0
BBX 12 12 0 0
BITMAP
00C0
07C0
0DC0
0CC0
7FE0
CEC0
C6C0
70C0
1CC0
C6C0
E6C0
FC70
ENDCHAR
STARTCHAR uniFB07
ENCODING 64263
SWIDTH 650 0
DWIDTH 13 0
BBX 13 12 0 0
BITMAP
0060
03E0
06E0
0660
3FF0
6760
C360
C060
C060
C360
6660
3C38
ENDCHAR
STARTCHAR .notdef
ENCODING -1
SWIDTH 0 0
DWIDTH 0 0
BBX 1 1 0 0
BITMAP
00
ENDCHAR
STARTCHAR .null
ENCODING -1
SWIDTH 0 0
DWIDTH 0 0
BBX 1 1 0 0
BITMAP
00
ENDCHAR
STARTCHAR nonmarkingreturn
ENCODING -1
SWIDTH 0 0
DWIDTH 0 0
BBX 1 1 0 0
BITMAP
00
ENDCHAR
ENDFONT
